<svg xmlns="http://www.w3.org/2000/svg" width="60" height="60" viewBox="0 0 60 60">
    <g fill="none" fill-rule="evenodd">
        <rect width="60" height="60" fill="#000" opacity=".75" rx="30"/>
        <path fill="#FFF" fill-rule="nonzero" d="M38.766 41c.286 0 .53-.1.73-.3l1.203-1.204c.2-.2.301-.444.301-.73 0-.287-.1-.53-.3-.73l-4.298-4.298c-.2-.2-.444-.3-.73-.3h-.688c1.26-1.605 1.891-3.438 1.891-5.5 0-2.464-.874-4.57-2.621-6.317C32.507 19.874 30.4 19 27.938 19c-2.464 0-4.57.874-6.317 2.621C19.874 23.368 19 25.474 19 27.938c0 2.463.874 4.569 2.621 6.316 1.747 1.747 3.853 2.621 6.317 2.621 2.062 0 3.895-.63 5.5-1.89v.687c0 .286.1.53.3.73l4.297 4.297c.2.2.444.301.73.301zm-10.828-7.219c-1.605 0-2.98-.573-4.125-1.718-1.146-1.146-1.72-2.521-1.72-4.126 0-1.604.574-2.979 1.72-4.125 1.145-1.145 2.52-1.718 4.125-1.718 1.604 0 2.979.573 4.125 1.718 1.145 1.146 1.718 2.521 1.718 4.125 0 1.605-.573 2.98-1.718 4.125-1.146 1.146-2.521 1.72-4.126 1.72zm.687-1.718c.344 0 .516-.172.516-.516V29.14h2.406c.344 0 .515-.172.515-.516V27.25c0-.344-.171-.516-.515-.516H29.14v-2.406c0-.344-.172-.515-.516-.515H27.25c-.344 0-.516.171-.516.515v2.406h-2.406c-.344 0-.515.172-.515.516v1.375c0 .344.171.516.515.516h2.406v2.406c0 .344.172.515.516.515h1.375z"/>
    </g>
</svg>
