<svg xmlns="http://www.w3.org/2000/svg" width="80" height="80" viewBox="0 0 80 80">
    <g fill="none" fill-rule="evenodd">
        <g fill-rule="nonzero">
            <g>
                <g>
                    <path fill="#363D45" d="M48.369 46.533c-.22-.065-.45-.08-.674-.046l-.08-.003c2.03-1.982 3.292-4.744 3.292-7.797V23.125c0-.863-.7-1.563-1.563-1.563H37.77c-4.784 0-8.676 3.893-8.676 8.676v8.449c0 3.053 1.262 5.815 3.29 7.797l-.078.003c-.225-.033-.455-.019-.674.046-8.078.725-14.43 7.532-14.43 15.795V70c0 .863.7 1.563 1.562 1.563h42.473c.862 0 1.562-.7 1.562-1.563v-7.672c0-8.263-6.353-15.07-14.43-15.795zm-16.15-14.106v-2.189c0-3.06 2.49-5.55 5.55-5.55h10.012v4.18c0 2.114-1.719 3.833-3.831 3.833H32.219v-.274zm0 6.26v-2.861h11.73c1.416 0 2.733-.426 3.832-1.155v4.016c0 4.29-3.49 7.781-7.781 7.781-4.29 0-7.781-3.49-7.781-7.781zm11.93 10.906L40 53.743l-4.15-4.15h8.3zm15.525 18.844H20.326v-4.496h12.75c.864 0 1.563-.7 1.563-1.563s-.7-1.562-1.562-1.562H20.419c.69-5.808 5.303-10.426 11.108-11.127l7.368 7.369c.305.305.705.457 1.105.457s.8-.152 1.105-.457l7.368-7.369c6.3.76 11.2 6.137 11.2 12.639v6.11z" transform="translate(-808 -808) translate(808 808) translate(0 4)"/>
                    <path fill="#363D45" d="M41.105 61.273c-.29-.29-.694-.457-1.105-.457-.41 0-.814.167-1.105.457-.29.291-.458.694-.458 1.105 0 .411.168.814.458 1.105.29.29.694.458 1.105.458.41 0 .814-.168 1.105-.458.29-.29.458-.694.458-1.105 0-.41-.168-.814-.458-1.105z" transform="translate(-808 -808) translate(808 808) translate(0 4)"/>
                    <path fill="#D81C63" d="M40.02 0c-3.274 0-5.938 2.664-5.938 5.938 0 2.733 1.857 5.039 4.375 5.727v3.816c0 .863.7 1.562 1.563 1.562s1.562-.7 1.562-1.562v-3.816c2.518-.688 4.375-2.994 4.375-5.727C45.957 2.663 43.294 0 40.02 0zm0 8.75c-1.55 0-2.813-1.262-2.813-2.813 0-1.55 1.262-2.812 2.813-2.812 1.55 0 2.812 1.262 2.812 2.813 0 1.55-1.261 2.812-2.812 2.812zM71.388 12.188c-1.122-1.122-2.613-1.74-4.198-1.74-1.586 0-3.077.618-4.199 1.74-1.932 1.932-2.25 4.876-.956 7.143l-2.699 2.699c-.61.61-.61 1.6 0 2.21.306.304.706.457 1.105.457.4 0 .8-.153 1.105-.458l2.697-2.697c.888.51 1.896.782 2.947.782 1.585 0 3.076-.618 4.198-1.74 1.122-1.12 1.74-2.612 1.74-4.198 0-1.586-.618-3.077-1.74-4.198zm-2.21 6.187c-1.096 1.097-2.88 1.097-3.977 0s-1.097-2.88 0-3.977c.548-.549 1.268-.823 1.989-.823.72 0 1.44.274 1.988.823.532.53.824 1.237.824 1.988 0 .752-.292 1.458-.824 1.99zM74.063 37.63c-2.734 0-5.04 1.857-5.728 4.375H64.52c-.863 0-1.562.7-1.562 1.563 0 .862.7 1.562 1.562 1.562h3.816c.688 2.518 2.994 4.375 5.728 4.375 3.273 0 5.937-2.663 5.937-5.937 0-3.274-2.664-5.938-5.938-5.938zm0 8.75c-1.551 0-2.813-1.262-2.813-2.812 0-1.551 1.262-2.813 2.813-2.813 1.55 0 2.812 1.262 2.812 2.813 0 1.55-1.262 2.812-2.813 2.812zM59.698 42.462c-.29-.29-.693-.457-1.104-.457-.411 0-.814.167-1.105.457-.29.291-.458.694-.458 1.105 0 .413.167.814.458 1.105.29.292.694.458 1.105.458.41 0 .814-.166 1.104-.458.29-.29.458-.694.458-1.105 0-.41-.167-.812-.458-1.105zM15.48 41.965h-3.815c-.688-2.518-2.994-4.375-5.727-4.375C2.663 37.59 0 40.254 0 43.528c0 3.274 2.664 5.937 5.938 5.937 2.733 0 5.039-1.856 5.727-4.375h3.816c.863 0 1.562-.7 1.562-1.562 0-.863-.7-1.563-1.562-1.563zM5.938 46.34c-1.55 0-2.812-1.261-2.812-2.812 0-1.55 1.262-2.813 2.813-2.813 1.55 0 2.812 1.262 2.812 2.813 0 1.55-1.262 2.812-2.813 2.812zM20.569 21.879l-2.697-2.697c.509-.888.781-1.896.781-2.946 0-1.586-.617-3.077-1.739-4.199-1.122-1.121-2.612-1.739-4.198-1.739-1.586 0-3.077.618-4.199 1.74-2.315 2.314-2.315 6.081 0 8.396 1.122 1.121 2.613 1.74 4.199 1.74 1.05 0 2.059-.274 2.946-.782l2.697 2.697c.305.305.705.457 1.105.457s.8-.152 1.105-.457c.61-.61.61-1.6 0-2.21zm-5.864-3.655c-1.097 1.097-2.881 1.097-3.978 0-1.097-1.096-1.097-2.88 0-3.977.548-.548 1.268-.823 1.989-.823.72 0 1.44.275 1.989.823.53.531.823 1.237.823 1.989 0 .75-.292 1.457-.823 1.988z" transform="translate(-808 -808) translate(808 808) translate(0 4)"/>
                </g>
            </g>
        </g>
    </g>
</svg>
