<svg xmlns="http://www.w3.org/2000/svg" width="80" height="80" viewBox="0 0 80 80">
    <g fill="none" fill-rule="evenodd">
        <g fill-rule="nonzero">
            <g>
                <path fill="#363D45" d="M78.438 69.063h-1.563v-50c0-2.585-2.103-4.688-4.687-4.688h-3.126V3.125C69.063 1.402 67.662 0 65.939 0H14.063c-1.723 0-3.125 1.402-3.125 3.125v11.25H7.813c-2.585 0-4.688 2.103-4.688 4.688v50H1.562c-.862 0-1.562.7-1.562 1.562v4.688C0 77.898 2.103 80 4.688 80h70.625C77.897 80 80 77.898 80 75.313v-4.688c0-.863-.7-1.562-1.562-1.562zM69.062 23.75h4.688v39.061h-4.688V23.752zm0-6.25h3.126c.861 0 1.562.7 1.562 1.562v1.563h-4.688V17.5zM6.25 23.75h4.688v39.061H6.25V23.752zm1.563-6.25h3.125v3.125H6.25v-1.563c0-.862.701-1.563 1.563-1.563zM6.25 69.062v-3.126h26.718c.863 0 1.563-.699 1.563-1.562 0-.863-.7-1.563-1.563-1.563H14.063V3.126h51.874v59.688H47.032c-.863 0-1.563.699-1.563 1.562 0 .863.7 1.563 1.563 1.563H73.75v3.125H49.375c-.863 0-1.563.7-1.563 1.562H32.188c0-.863-.7-1.562-1.563-1.562H6.25zm70.625 6.25c0 .861-.7 1.562-1.562 1.562H4.687c-.861 0-1.562-.7-1.562-1.562v-3.125h26.357c.541.933 1.551 1.562 2.706 1.562h15.625c1.154 0 2.164-.629 2.705-1.562h26.357v3.125z" transform="translate(-1224 -808) translate(1224 808)"/>
                <path fill="#EC006D" d="M58.125 42.686c-1.252 0-2.43.488-3.314 1.373l-4.313 4.313-.733-.733c-.885-.886-2.062-1.373-3.314-1.373-1.252 0-2.43.488-3.314 1.373-.886.885-1.373 2.062-1.373 3.314 0 1.252.487 2.43 1.373 3.314l4.047 4.048c.913.913 2.114 1.37 3.314 1.37 1.2 0 2.4-.457 3.315-1.37l7.626-7.627c1.828-1.828 1.828-4.801 0-6.629-.885-.885-2.062-1.373-3.314-1.373zm1.105 5.792l-7.627 7.627c-.61.609-1.6.609-2.21 0l-4.047-4.047c-.295-.295-.457-.688-.457-1.105 0-.417.162-.81.457-1.104.295-.296.688-.458 1.105-.458.417 0 .81.163 1.104.458l1.838 1.837c.293.293.69.458 1.105.458.414 0 .812-.165 1.105-.458l5.417-5.417c.295-.295.688-.458 1.105-.458.417 0 .81.163 1.104.458.61.609.61 1.6 0 2.209zM21.876 6.25c-2.585 0-4.688 2.103-4.688 4.688 0 2.584 2.103 4.687 4.688 4.687 2.584 0 4.687-2.103 4.687-4.687 0-2.585-2.103-4.688-4.687-4.688zm0 6.25c-.862 0-1.563-.7-1.563-1.562 0-.862.701-1.563 1.563-1.563.861 0 1.562.701 1.562 1.563 0 .861-.7 1.562-1.562 1.562z" transform="translate(-1224 -808) translate(1224 808)"/>
                <path fill="#363D45" d="M31.25 9.375h30c.863 0 1.562-.7 1.562-1.562 0-.863-.7-1.563-1.562-1.563h-30c-.862 0-1.562.7-1.562 1.563s.7 1.562 1.563 1.562zM31.25 15.625h30c.863 0 1.562-.7 1.562-1.562 0-.863-.7-1.563-1.562-1.563h-30c-.862 0-1.562.7-1.562 1.563s.7 1.562 1.563 1.562z" transform="translate(-1224 -808) translate(1224 808)"/>
                <path fill="#EC006D" d="M21.876 20.313c-2.585 0-4.688 2.103-4.688 4.687 0 2.585 2.103 4.688 4.688 4.688 2.584 0 4.687-2.103 4.687-4.688 0-2.584-2.103-4.687-4.687-4.687zm0 6.25c-.862 0-1.563-.701-1.563-1.563 0-.861.701-1.562 1.563-1.562.861 0 1.562.7 1.562 1.562 0 .862-.7 1.563-1.562 1.563z" transform="translate(-1224 -808) translate(1224 808)"/>
                <path fill="#363D45" d="M31.25 23.438h30c.863 0 1.562-.7 1.562-1.563s-.7-1.562-1.562-1.562h-30c-.862 0-1.562.7-1.562 1.562 0 .863.7 1.563 1.563 1.563zM31.25 29.688h30c.863 0 1.562-.7 1.562-1.563s-.7-1.562-1.562-1.562h-30c-.862 0-1.562.7-1.562 1.562 0 .863.7 1.563 1.563 1.563z" transform="translate(-1224 -808) translate(1224 808)"/>
                <path fill="#EC006D" d="M21.876 34.376c-2.585 0-4.688 2.102-4.688 4.687 0 2.585 2.103 4.688 4.688 4.688 2.584 0 4.687-2.103 4.687-4.688 0-2.585-2.103-4.687-4.687-4.687zm0 6.25c-.862 0-1.563-.701-1.563-1.563 0-.861.701-1.562 1.563-1.562.861 0 1.562.7 1.562 1.562 0 .862-.7 1.563-1.562 1.563z" transform="translate(-1224 -808) translate(1224 808)"/>
                <path fill="#363D45" d="M31.25 37.5h30c.863 0 1.562-.699 1.562-1.562 0-.863-.7-1.562-1.562-1.562h-30c-.862 0-1.562.7-1.562 1.562 0 .863.7 1.563 1.563 1.563zM31.25 43.75h15c.863 0 1.563-.699 1.563-1.562 0-.863-.7-1.562-1.563-1.562h-15c-.862 0-1.562.7-1.562 1.562 0 .863.7 1.563 1.563 1.563zM21.876 48.438c-2.585 0-4.688 2.103-4.688 4.688 0 2.584 2.103 4.687 4.688 4.687 2.584 0 4.687-2.103 4.687-4.687 0-2.585-2.103-4.688-4.687-4.688zm0 6.25c-.862 0-1.563-.7-1.563-1.562 0-.862.701-1.563 1.563-1.563.861 0 1.562.701 1.562 1.563 0 .861-.7 1.562-1.562 1.562zM31.25 51.563H37c.863 0 1.563-.7 1.563-1.562 0-.863-.7-1.563-1.563-1.563h-5.75c-.862 0-1.562.7-1.562 1.563s.7 1.562 1.563 1.562zM38.563 56.25c0-.862-.7-1.562-1.563-1.562h-5.75c-.862 0-1.562.7-1.562 1.563s.7 1.562 1.563 1.562H37c.863 0 1.563-.7 1.563-1.562zM40 62.813c-.864 0-1.563.699-1.563 1.562 0 .863.7 1.563 1.563 1.563s1.563-.7 1.563-1.563-.7-1.563-1.563-1.563z" transform="translate(-1224 -808) translate(1224 808)"/>
            </g>
        </g>
    </g>
</svg>
