<svg xmlns="http://www.w3.org/2000/svg" width="80" height="80" viewBox="0 0 80 80">
    <g fill="none" fill-rule="evenodd">
        <g fill-rule="nonzero">
            <g>
                <g>
                    <path fill="#363D45" d="M79.845 42.132c-.719-7.224-3.946-14.036-9.09-19.179-4.394-4.394-9.774-7.219-15.434-8.474v-3.97c2.312-.576 4.03-2.668 4.03-5.156 0-2.929-2.383-5.312-5.312-5.312h-11.25c-2.93 0-5.313 2.383-5.313 5.312 0 2.488 1.719 4.58 4.03 5.156v3.98c-5.642 1.262-11.004 4.082-15.386 8.465-.96.959-1.844 1.965-2.653 3.01-.04-.003-.079-.006-.119-.006H12.214c-.863 0-1.563.7-1.563 1.563s.7 1.562 1.563 1.562h9.126c-1.145 1.918-2.069 3.933-2.772 6.006H1.562C.7 35.09 0 35.79 0 36.652s.7 1.562 1.563 1.562h16.122c-.45 1.977-.709 3.989-.775 6.006H10c-.863 0-1.563.7-1.563 1.562 0 .863.7 1.563 1.563 1.563h6.96c.131 2.022.456 4.034.975 6.006H7.813c-.863 0-1.563.7-1.563 1.562 0 .863.7 1.563 1.563 1.563h11.12c1.532 4.054 3.927 7.855 7.187 11.114 5.147 5.148 11.965 8.376 19.198 9.09 1.032.103 2.065.153 3.096.153 6.098 0 12.117-1.764 17.225-5.09.723-.472.928-1.44.457-2.163-.471-.723-1.44-.927-2.162-.456-11.181 7.28-26.155 5.706-35.605-3.744-11.088-11.087-11.088-29.129 0-40.217 11.088-11.087 29.129-11.087 40.217 0 9.437 9.438 11.02 24.399 3.763 35.574-.47.724-.264 1.692.46 2.162s1.691.264 2.161-.46c3.877-5.97 5.623-13.183 4.915-20.307zM40.6 5.354c0-1.207.982-2.188 2.188-2.188h11.25c1.206 0 2.187.981 2.187 2.188 0 1.206-.98 2.187-2.187 2.187H42.789c-1.206 0-2.188-.981-2.188-2.187zm4.03 8.599v-3.287h7.565v3.28c-2.512-.298-5.053-.296-7.564.007z" transform="translate(-392 -808) translate(392 808) translate(0 1.125)"/>
                    <path fill="#363D45" d="M69.652 64.922c-.413 0-.814.167-1.105.458-.292.29-.458.693-.458 1.104 0 .411.166.814.458 1.105.29.292.692.458 1.105.458.41 0 .812-.166 1.104-.458.29-.29.458-.694.458-1.105 0-.41-.167-.814-.458-1.104-.292-.29-.694-.458-1.104-.458z" transform="translate(-392 -808) translate(392 808) translate(0 1.125)"/>
                    <path fill="#EC006D" d="M48.438 21.033c-13.366 0-24.24 10.873-24.24 24.239 0 13.365 10.874 24.238 24.24 24.238 13.365 0 24.239-10.873 24.239-24.238 0-13.366-10.874-24.24-24.24-24.24zm0 45.352c-11.643 0-21.114-9.471-21.114-21.113 0-11.643 9.471-21.114 21.114-21.114 11.642 0 21.114 9.471 21.114 21.114 0 11.642-9.472 21.113-21.114 21.113z" transform="translate(-392 -808) translate(392 808) translate(0 1.125)"/>
                    <path fill="#EC006D" d="M58.321 33.178l-7.739 7.739c-.647-.32-1.375-.5-2.144-.5-.77 0-1.498.18-2.145.5l-3.464-3.464c-.61-.61-1.599-.61-2.21 0-.61.61-.61 1.6 0 2.21l3.464 3.464c-.32.647-.5 1.375-.5 2.144 0 2.678 2.177 4.856 4.855 4.856 2.677 0 4.855-2.178 4.855-4.856 0-.77-.18-1.497-.5-2.144l7.511-7.512.227-.227c.61-.61.61-1.6 0-2.21-.61-.61-1.6-.61-2.21 0zm-9.883 13.824c-.954 0-1.73-.776-1.73-1.73s.776-1.73 1.73-1.73 1.73.776 1.73 1.73-.776 1.73-1.73 1.73zM65.144 43.728h-1.448c-.863 0-1.562.7-1.562 1.563s.7 1.562 1.562 1.562h1.448c.863 0 1.562-.7 1.562-1.562 0-.863-.7-1.563-1.562-1.563zM33.18 43.69h-1.448c-.863 0-1.563.7-1.563 1.563 0 .862.7 1.562 1.563 1.562h1.447c.863 0 1.563-.7 1.563-1.563 0-.862-.7-1.562-1.563-1.562zM48.457 31.575c.863 0 1.562-.7 1.562-1.562v-1.448c0-.863-.7-1.562-1.562-1.562-.863 0-1.563.7-1.563 1.562v1.448c0 .863.7 1.562 1.563 1.562zM48.419 58.968c-.863 0-1.563.7-1.563 1.562v1.448c0 .863.7 1.562 1.563 1.562.862 0 1.562-.7 1.562-1.562V60.53c0-.863-.7-1.562-1.562-1.562z" transform="translate(-392 -808) translate(392 808) translate(0 1.125)"/>
                    <path fill="#363D45" d="M1.563 53.35c-.411 0-.815.167-1.105.458-.29.29-.458.694-.458 1.105 0 .412.167.814.458 1.104.29.29.694.458 1.105.458.41 0 .814-.167 1.104-.458.29-.29.458-.694.458-1.105 0-.41-.167-.814-.458-1.104-.29-.29-.694-.458-1.104-.458z" transform="translate(-392 -808) translate(392 808) translate(0 1.125)"/>
                </g>
            </g>
        </g>
    </g>
</svg>
