<?xml version="1.0" encoding="UTF-8"?>
<svg width="15px" height="9px" viewBox="0 0 15 9" version="1.1" xmlns="http://www.w3.org/2000/svg" xmlns:xlink="http://www.w3.org/1999/xlink">
    <title></title>
    <g id="Neuton-antique-pages" stroke="none" stroke-width="1" fill="none" fill-rule="evenodd">
        <g id="Neuton-key-value-proposition-1920" transform="translate(-1519.000000, -406.000000)" fill="#333333" fill-rule="nonzero">
            <g id="Group" transform="translate(352.000000, 368.000000)">
                <g id="Group-4" transform="translate(1174.500000, 40.000000) scale(1, -1) translate(-1174.500000, -40.000000) translate(1133.000000, 0.000000)">
                    <path d="M47.784375,41.5 C48.190625,41.5 48.471875,41.3046875 48.628125,40.9140625 C48.784375,40.5234375 48.721875,40.1875 48.440625,39.90625 L48.440625,39.90625 L42.39375,33.859375 C42.20625,33.671875 41.9875,33.578125 41.7375,33.578125 C41.4875,33.578125 41.26875,33.671875 41.08125,33.859375 L41.08125,33.859375 L35.034375,39.90625 C34.753125,40.1875 34.690625,40.5234375 34.846875,40.9140625 C35.003125,41.3046875 35.284375,41.5 35.690625,41.5 L35.690625,41.5 L47.784375,41.5 Z" id=""></path>
                </g>
            </g>
        </g>
    </g>
</svg>