<svg xmlns="http://www.w3.org/2000/svg" width="5" height="12" viewBox="0 0 5 12">
    <g fill="none" fill-rule="evenodd">
        <g fill="#363d45" fill-rule="nonzero">
            <g>
                <g>
                    <path d="M12.25 9.375c.469 0 .867-.164 1.195-.492.328-.328.492-.727.492-1.195 0-.47-.164-.868-.492-1.196C13.117 6.164 12.72 6 12.25 6c-.469 0-.867.164-1.195.492-.328.328-.492.727-.492 1.196 0 .468.164.867.492 1.195.328.328.726.492 1.195.492zM14.031 18c.125 0 .235-.047.328-.14.094-.094.141-.204.141-.329v-1.125c0-.125-.047-.234-.14-.328-.094-.094-.204-.14-.329-.14h-.469v-4.97c0-.124-.046-.234-.14-.327-.094-.094-.203-.141-.328-.141h-2.625c-.125 0-.235.047-.328.14-.094.094-.141.204-.141.329v1.125c0 .125.047.234.14.328.094.094.204.14.329.14h.469v3.376h-.47c-.124 0-.234.046-.327.14-.094.094-.141.203-.141.328v1.125c0 .125.047.235.14.328.094.094.204.141.329.141h3.562z" transform="translate(-753 -896) translate(743 850) translate(0 40)"/>
                </g>
            </g>
        </g>
    </g>
</svg>
