<svg xmlns="http://www.w3.org/2000/svg" width="80" height="80" viewBox="0 0 80 80">
    <g fill="none" fill-rule="nonzero">
        <path fill="#363D45" d="M60.93 25.783h-5.79a6.759 6.759 0 0 0 1.097-3.699 6.81 6.81 0 0 0-6.801-6.801 6.804 6.804 0 0 0-5.852 3.34 5.732 5.732 0 0 0-3.586-1.258 5.732 5.732 0 0 0-3.587 1.257 6.804 6.804 0 0 0-5.851-3.34 6.81 6.81 0 0 0-6.802 6.802 6.76 6.76 0 0 0 1.098 3.7h-5.79a3.757 3.757 0 0 0-3.753 3.752v5.462c0 1.386.755 2.597 1.874 3.247v25.658a5.32 5.32 0 0 0 5.314 5.313h34.993a5.32 5.32 0 0 0 5.314-5.313V38.245a3.754 3.754 0 0 0 1.875-3.247v-5.462a3.757 3.757 0 0 0-3.753-3.753zM45.76 22.085a3.681 3.681 0 0 1 3.677-3.678 3.681 3.681 0 0 1 3.677 3.678 3.681 3.681 0 0 1-3.677 3.677h-3.677v-3.677zm1.604 6.823l4.745 8.361-1.118-.3a1.563 1.563 0 0 0-1.914 1.105l-.273 1.021-5.73-10.187h4.29zm-7.365-8.418a2.639 2.639 0 0 1 2.636 2.635 2.639 2.639 0 0 1-2.636 2.637 2.639 2.639 0 0 1-2.636-2.637 2.639 2.639 0 0 1 2.636-2.635zm-2.933 8.418l-4.783 8.358-.283-1.06a1.563 1.563 0 0 0-1.914-1.104l-1.107.296 3.702-6.49h4.385zm-6.505-10.5a3.681 3.681 0 0 1 3.677 3.677v3.677H30.56a3.681 3.681 0 0 1-3.677-3.677 3.681 3.681 0 0 1 3.677-3.678zm-12.122 16.59v-5.462c0-.346.281-.628.628-.628h10.017l-3.832 6.718h-6.185a.629.629 0 0 1-.628-.628zM42.81 66.092H22.501a2.191 2.191 0 0 1-2.189-2.189V38.751h4.162c.018.027.034.056.054.082.385.5 1.033.718 1.642.555l3.214-.863.86 3.215a1.562 1.562 0 0 0 2.866.372l.95-1.662v15.8a1.563 1.563 0 0 0 3.125 0V38.842h5.625v27.249zm-6.042-30.374l3.304-5.772 3.246 5.772h-6.55zm22.915 28.185a2.191 2.191 0 0 1-2.189 2.189h-11.56V40.37l2.025 3.6a1.562 1.562 0 0 0 2.871-.362l.86-3.215 3.215.862a1.562 1.562 0 0 0 1.764-2.28l-.128-.224h3.142v25.152zm1.875-28.905a.629.629 0 0 1-.628.628h-6.162l-3.812-6.718h9.974c.346 0 .628.282.628.628v5.462z"/>
        <path fill="#363D45" d="M36.728 60.846a1.573 1.573 0 0 0-1.105-.456c-.41 0-.813.165-1.104.456-.29.29-.458.694-.458 1.106 0 .411.167.814.458 1.105.29.29.694.458 1.104.458.411 0 .814-.168 1.105-.458.29-.292.458-.694.458-1.105a1.58 1.58 0 0 0-.458-1.106z"/>
        <path fill="#D81C63" d="M75.441 4.57c-.61-.61-1.599-.61-2.21 0l-14.34 14.341a1.563 1.563 0 0 0 2.21 2.21L75.44 6.78c.61-.61.61-1.6 0-2.21zM15.636 13.742L6.81 4.915a1.563 1.563 0 0 0-2.21 2.21l8.828 8.827a1.558 1.558 0 0 0 2.21 0c.61-.61.61-1.6 0-2.21zM14.927 65.228c-.61-.61-1.6-.61-2.21 0L.616 77.33a1.563 1.563 0 0 0 2.21 2.21l12.1-12.102c.61-.61.61-1.6 0-2.21zM75.628 73.421l-7.8-7.8a1.563 1.563 0 0 0-2.21 2.21l7.8 7.8a1.558 1.558 0 0 0 2.21 0c.61-.61.61-1.6 0-2.21zM10.39 38.438H1.562a1.563 1.563 0 0 0 0 3.125h8.828a1.562 1.562 0 0 0 0-3.125zM78.43 38.438h-8.913a1.563 1.563 0 0 0 0 3.125h8.912a1.562 1.562 0 0 0 0-3.125zM39.998.003c-.863 0-1.562.7-1.562 1.563v11.978a1.563 1.563 0 0 0 3.124 0V1.565c0-.862-.7-1.562-1.562-1.562zM39.998 70.9c-.863 0-1.562.7-1.562 1.562v5.973a1.563 1.563 0 0 0 3.124 0v-5.973c0-.863-.7-1.562-1.562-1.562zM78.431 55.293H77.36a1.563 1.563 0 0 0 0 3.125h1.071a1.563 1.563 0 0 0 0-3.125zM70.85 55.293h-1.07a1.563 1.563 0 0 0 0 3.125h1.07a1.563 1.563 0 0 0 0-3.125zM74.105 58.547c-.862 0-1.562.7-1.562 1.563v1.071a1.563 1.563 0 0 0 3.125 0V60.11c0-.863-.7-1.563-1.563-1.563zM74.105 50.967c-.862 0-1.562.7-1.562 1.562v1.072a1.563 1.563 0 0 0 3.125 0v-1.072c0-.863-.7-1.562-1.563-1.562zM10.382 24.848H9.31a1.563 1.563 0 0 0 0 3.125h1.072a1.562 1.562 0 0 0 0-3.125zM2.802 24.848H1.73a1.563 1.563 0 0 0 0 3.125h1.072a1.562 1.562 0 0 0 0-3.125zM6.056 28.103c-.863 0-1.562.7-1.562 1.562v1.072a1.563 1.563 0 0 0 3.124 0v-1.072c0-.863-.7-1.562-1.562-1.562zM6.056 20.522c-.863 0-1.562.7-1.562 1.563v1.071a1.563 1.563 0 0 0 3.124 0v-1.071c0-.863-.7-1.563-1.562-1.563zM58.381 3.078a4.692 4.692 0 0 0-4.687 4.687 4.692 4.692 0 0 0 4.687 4.687 4.692 4.692 0 0 0 4.687-4.687 4.692 4.692 0 0 0-4.687-4.688zm0 6.249c-.861 0-1.562-.701-1.562-1.562 0-.862.7-1.563 1.562-1.563.862 0 1.563.701 1.563 1.563 0 .86-.701 1.562-1.563 1.562zM6.722 52.168a4.692 4.692 0 0 0-4.687 4.687 4.692 4.692 0 0 0 4.687 4.687 4.692 4.692 0 0 0 4.687-4.687 4.692 4.692 0 0 0-4.687-4.687zm0 6.25c-.862 0-1.563-.701-1.563-1.563 0-.861.701-1.562 1.563-1.562.861 0 1.562.7 1.562 1.562 0 .862-.7 1.563-1.562 1.563zM59.487 72.92a1.574 1.574 0 0 0-1.105-.458c-.412 0-.814.167-1.106.458-.29.29-.456.694-.456 1.105 0 .41.165.812.456 1.104.292.29.695.458 1.106.458.41 0 .814-.167 1.105-.458.29-.292.457-.694.457-1.104 0-.411-.167-.815-.457-1.105zM25.792 72.92a1.574 1.574 0 0 0-1.105-.458c-.41 0-.814.167-1.105.458-.29.29-.457.692-.457 1.105 0 .41.167.812.457 1.104.291.29.694.458 1.105.458.411 0 .814-.167 1.105-.458.29-.292.457-.694.457-1.104a1.57 1.57 0 0 0-.457-1.105zM26.868 6.705a1.575 1.575 0 0 0-1.105-.458c-.41 0-.814.167-1.104.458-.29.29-.458.694-.458 1.104a1.568 1.568 0 0 0 1.562 1.562c.411 0 .814-.165 1.105-.457.29-.29.458-.692.458-1.105 0-.41-.168-.812-.458-1.104zM75.086 24.367a1.568 1.568 0 0 0-1.104-.458 1.567 1.567 0 0 0-1.562 1.563c0 .41.167.812.457 1.104.291.29.694.458 1.105.458.41 0 .814-.167 1.104-.458.291-.292.458-.694.458-1.104 0-.413-.167-.814-.458-1.105z"/>
    </g>
</svg>
