<svg xmlns="http://www.w3.org/2000/svg" width="80" height="80" viewBox="0 0 80 80">
    <g fill="none">
        <path fill="#363D45" d="M54.063 49.844c-.863 0-1.563.7-1.563 1.562v10.782c0 4.307-3.505 7.812-7.813 7.812h-16.87c-.862 0-1.561.699-1.562 1.561l-.002 3.107-3.73-3.73c-.241-.553-.793-.938-1.433-.938H10.938c-4.308 0-7.813-3.505-7.813-7.813V38.126c0-4.308 3.505-7.813 7.813-7.813h15.78c.864 0 1.563-.699 1.563-1.562 0-.863-.7-1.563-1.562-1.563H10.937C4.907 27.188 0 32.094 0 38.126v24.063c0 6.03 4.907 10.937 10.938 10.937h9.352l6.418 6.417c.299.3.698.458 1.105.458.2 0 .404-.039.597-.119.584-.241.965-.81.965-1.442l.004-5.314h15.308c6.031 0 10.938-4.907 10.938-10.938v-10.78c0-.864-.7-1.563-1.563-1.563z"/>
        <path fill="#D81C63" d="M57.29 0h-3.955c-12.522 0-22.71 10.188-22.71 22.71 0 12.523 10.188 22.71 22.71 22.71h3.955c1.954 0 3.889-.248 5.764-.738l5.841 5.838c.3.299.699.457 1.105.457.202 0 .405-.039.598-.119.584-.242.965-.811.965-1.443v-9.04c2.473-2.003 4.527-4.533 5.97-7.36C79.17 29.805 80 26.338 80 22.71 80 10.188 69.812 0 57.29 0zm11.77 38.365c-.392.295-.623.757-.623 1.248v6.031l-3.823-3.821c-.298-.298-.697-.458-1.105-.458-.153 0-.308.023-.459.07-1.86.57-3.797.86-5.76.86h-3.955c-10.8 0-19.585-8.785-19.585-19.585S42.536 3.125 53.335 3.125h3.955c10.8 0 19.585 8.786 19.585 19.585 0 6.208-2.848 11.914-7.815 15.655z"/>
        <path fill="#D81C63" d="M62.349 17.097c-.226-3.271-2.862-5.908-6.134-6.133-1.854-.128-3.624.498-4.978 1.762-1.336 1.247-2.102 3.01-2.102 4.837 0 .863.7 1.562 1.562 1.562.863 0 1.563-.7 1.563-1.562 0-.978.394-1.885 1.11-2.552.714-.667 1.648-.997 2.63-.93 1.724.12 3.113 1.508 3.231 3.231.12 1.74-1.021 3.278-2.714 3.657-1.372.307-2.33 1.498-2.33 2.898v3.754c0 .863.7 1.562 1.563 1.562s1.563-.7 1.562-1.562v-3.63c3.149-.76 5.261-3.64 5.037-6.894zM56.855 32.697c-.29-.29-.694-.458-1.105-.458-.41 0-.814.167-1.105.458-.29.29-.458.694-.458 1.105 0 .412.168.815.458 1.106.29.29.694.456 1.105.456.41 0 .814-.166 1.105-.456.29-.292.458-.694.458-1.106 0-.411-.168-.815-.458-1.105z"/>
        <path fill="#363D45" d="M42.969 48.438H10c-.863 0-1.563.699-1.563 1.562 0 .863.7 1.563 1.563 1.563h32.969c.863 0 1.562-.7 1.562-1.563s-.7-1.563-1.562-1.563zM44.073 57.645c-.29-.29-.693-.458-1.104-.458-.411 0-.814.168-1.105.458-.29.29-.458.694-.458 1.105 0 .41.167.814.458 1.105.29.29.694.458 1.105.458.41 0 .814-.168 1.104-.458.291-.29.458-.692.458-1.105 0-.41-.167-.814-.458-1.105zM36.823 57.188H10c-.863 0-1.563.699-1.563 1.562 0 .863.7 1.563 1.563 1.563h26.823c.863 0 1.562-.7 1.562-1.563s-.7-1.563-1.562-1.563zM32.813 39.688H10c-.863 0-1.563.699-1.563 1.562 0 .863.7 1.563 1.563 1.563h22.813c.862 0 1.562-.7 1.562-1.563s-.7-1.563-1.563-1.563z"/>
    </g>
</svg>
