<svg xmlns="http://www.w3.org/2000/svg" width="80" height="80" viewBox="0 0 80 80">
    <g fill="none" fill-rule="nonzero">
        <path fill="#D81C63" d="M33.294 5.34c-15.432 0-27.941 12.51-27.941 27.942s12.51 27.941 27.941 27.941c15.432 0 27.942-12.51 27.942-27.941C61.22 17.857 48.72 5.357 33.294 5.34zm0 2.661A25.254 25.254 0 0 1 53.94 18.739l-3.326 3.326a5.25 5.25 0 0 0-2.683-.758 5.322 5.322 0 0 0-5.322 5.322c.005.947.266 1.875.755 2.686l-8.713 8.713a5.16 5.16 0 0 0-5.373 0l-6.051-6.052c.49-.81.75-1.739.754-2.686a5.312 5.312 0 0 0-10.455-1.33H8.588C11.108 16.325 21.391 8.017 33.294 8zm17.298 18.628a2.661 2.661 0 1 1-5.322 0 2.661 2.661 0 0 1 5.322 0zM34.625 42.596a2.661 2.661 0 1 1-5.322 0 2.661 2.661 0 0 1 5.322 0zM21.319 29.29a2.661 2.661 0 1 1-5.322 0 2.661 2.661 0 0 1 5.322 0zm24.259 26.097a25.258 25.258 0 0 1-12.284 3.175c-13.952.01-25.27-11.293-25.28-25.246-.001-.9.047-1.8.142-2.696h5.369a5.323 5.323 0 0 0 5.133 3.992 5.251 5.251 0 0 0 2.687-.754l6.05 6.051c-.488.811-.749 1.74-.754 2.686a5.322 5.322 0 0 0 10.645 0 5.251 5.251 0 0 0-.754-2.686l8.712-8.712c.811.489 1.74.75 2.686.754a5.322 5.322 0 0 0 5.323-5.322 5.251 5.251 0 0 0-.755-2.687l2.9-2.899c6.773 12.196 2.375 27.572-9.82 34.344z"/>
        <path fill="#363D45" d="M66.558 13.323a5.322 5.322 0 0 0 5.134-3.991h8.172V6.67h-8.172a5.322 5.322 0 0 0-5.134-3.991A5.322 5.322 0 0 0 61.236 8c.005.947.265 1.875.755 2.686l-2.338 2.338C48.467-1.548 27.585-4.294 13.012 6.892S-4.308 38.96 6.879 53.533C17.437 67.289 36.792 70.626 51.347 61.2l4.016 4.015 1.881 1.882 10.711 10.71a6.975 6.975 0 1 0 9.865-9.864L67.11 57.232l-1.882-1.882-4.016-4.015a33.154 33.154 0 0 0 0-36.106l2.661-2.662c.81.49 1.739.75 2.685.756zm0-7.983a2.661 2.661 0 1 1 0 5.322 2.661 2.661 0 0 1 0-5.322zm9.38 64.484a4.315 4.315 0 1 1-6.101 6.102l-10.711-10.71 6.102-6.103 10.71 10.711zM63.347 57.232l-6.102 6.102-3.683-3.683c.188-.144.364-.302.549-.45a33.523 33.523 0 0 0 1.458-1.237c.145-.133.283-.267.426-.4a34.23 34.23 0 0 0 1.584-1.584c.133-.143.266-.281.4-.426a32.94 32.94 0 0 0 1.237-1.458c.146-.184.305-.36.448-.547l3.683 3.683zm-5.16-6.18c-.419.585-.851 1.158-1.307 1.71-.134.161-.276.317-.413.475a29.976 29.976 0 0 1-3.216 3.216c-.158.133-.314.278-.475.413-.552.456-1.126.889-1.711 1.308-13.774 9.84-32.917 6.651-42.758-7.123-9.84-13.774-6.651-32.917 7.123-42.757 13.774-9.84 32.917-6.652 42.757 7.122a30.65 30.65 0 0 1 0 35.635z"/>
    </g>
</svg>
