<svg xmlns="http://www.w3.org/2000/svg" width="80" height="80" viewBox="0 0 80 80">
    <g fill="none" fill-rule="nonzero">
        <path fill="#363D45" d="M48.369 50.533c-.22-.065-.45-.08-.674-.046l-.08-.003a10.872 10.872 0 0 0 3.292-7.797V27.125c0-.863-.7-1.563-1.563-1.563H37.77c-4.784 0-8.676 3.893-8.676 8.676v8.449c0 3.053 1.262 5.815 3.29 7.797l-.078.003a1.57 1.57 0 0 0-.674.046c-8.078.725-14.43 7.532-14.43 15.795V74c0 .863.7 1.563 1.562 1.563h42.473c.862 0 1.562-.7 1.562-1.563v-7.672c0-8.263-6.353-15.07-14.43-15.795zm-16.15-14.106v-2.189c0-3.06 2.49-5.55 5.55-5.55h10.012v4.18a3.836 3.836 0 0 1-3.831 3.833H32.219v-.274zm0 6.26v-2.861h11.73a6.915 6.915 0 0 0 3.832-1.155v4.016c0 4.29-3.49 7.781-7.781 7.781-4.29 0-7.781-3.49-7.781-7.781zm11.93 10.906L40 57.743l-4.15-4.15h8.3zm15.525 18.844H20.326v-4.496h12.75a1.563 1.563 0 0 0 0-3.125H20.42c.69-5.808 5.303-10.426 11.108-11.127l7.368 7.369c.305.305.705.457 1.105.457s.8-.152 1.105-.457l7.368-7.369c6.3.76 11.2 6.137 11.2 12.639v6.11z"/>
        <path fill="#363D45" d="M41.105 65.273A1.574 1.574 0 0 0 40 64.816c-.41 0-.814.167-1.105.457-.29.291-.458.694-.458 1.105 0 .411.168.814.458 1.105.29.29.694.458 1.105.458.41 0 .814-.168 1.105-.458.29-.29.458-.694.458-1.105 0-.41-.168-.814-.458-1.105z"/>
        <path fill="#D81C63" d="M40.02 4a5.944 5.944 0 0 0-5.938 5.938 5.947 5.947 0 0 0 4.375 5.727v3.816a1.563 1.563 0 0 0 3.125 0v-3.816a5.947 5.947 0 0 0 4.375-5.727A5.944 5.944 0 0 0 40.02 4zm0 8.75a2.816 2.816 0 0 1-2.813-2.813 2.816 2.816 0 0 1 2.813-2.812 2.816 2.816 0 0 1 2.812 2.813 2.816 2.816 0 0 1-2.812 2.812zM71.388 16.188a5.899 5.899 0 0 0-4.198-1.74 5.899 5.899 0 0 0-4.199 1.74 5.948 5.948 0 0 0-.956 7.143l-2.699 2.699a1.563 1.563 0 0 0 2.21 2.21l2.697-2.698a5.902 5.902 0 0 0 2.947.782 5.898 5.898 0 0 0 4.198-1.74 5.898 5.898 0 0 0 1.74-4.198 5.899 5.899 0 0 0-1.74-4.198zm-2.21 6.187a2.816 2.816 0 0 1-3.977 0 2.816 2.816 0 0 1 0-3.977 2.803 2.803 0 0 1 1.989-.823c.72 0 1.44.274 1.988.823.532.53.824 1.237.824 1.988 0 .752-.292 1.458-.824 1.99zM74.063 41.63a5.947 5.947 0 0 0-5.728 4.375H64.52a1.563 1.563 0 0 0 0 3.125h3.816a5.947 5.947 0 0 0 5.728 4.375A5.944 5.944 0 0 0 80 47.568a5.944 5.944 0 0 0-5.938-5.938zm0 8.75a2.816 2.816 0 0 1-2.813-2.812 2.816 2.816 0 0 1 2.813-2.813 2.816 2.816 0 0 1 2.812 2.813 2.816 2.816 0 0 1-2.813 2.812zM59.698 46.462a1.574 1.574 0 0 0-1.104-.457c-.411 0-.814.167-1.105.457-.29.291-.458.694-.458 1.105a1.567 1.567 0 0 0 1.563 1.563 1.567 1.567 0 0 0 1.562-1.563c0-.41-.167-.812-.458-1.105zM15.48 45.965h-3.815a5.947 5.947 0 0 0-5.727-4.375A5.944 5.944 0 0 0 0 47.528a5.944 5.944 0 0 0 5.938 5.937 5.947 5.947 0 0 0 5.727-4.375h3.816a1.563 1.563 0 0 0 0-3.125zM5.938 50.34a2.816 2.816 0 0 1-2.812-2.812 2.816 2.816 0 0 1 2.813-2.813 2.816 2.816 0 0 1 2.812 2.813 2.816 2.816 0 0 1-2.813 2.812zM20.569 25.879l-2.697-2.697c.509-.888.781-1.896.781-2.946a5.899 5.899 0 0 0-1.739-4.199 5.899 5.899 0 0 0-4.198-1.739 5.899 5.899 0 0 0-4.199 1.74 5.945 5.945 0 0 0 0 8.396 5.9 5.9 0 0 0 4.199 1.74c1.05 0 2.059-.274 2.946-.782l2.697 2.697c.305.305.705.457 1.105.457s.8-.152 1.105-.457c.61-.61.61-1.6 0-2.21zm-5.864-3.655a2.815 2.815 0 0 1-3.978 0 2.816 2.816 0 0 1 0-3.977 2.804 2.804 0 0 1 1.989-.823c.72 0 1.44.275 1.989.823.53.531.823 1.237.823 1.989 0 .75-.292 1.457-.823 1.988z"/>
    </g>
</svg>
