<svg xmlns="http://www.w3.org/2000/svg" width="12" height="16" viewBox="0 0 12 16">
    <path fill="#FFF" d="M7.125 10.75c.208 0 .385-.073.531-.219.146-.146.219-.323.219-.531v-.188c0-.229.135-.453.406-.671.271-.22.6-.433.985-.641.385-.208.77-.453 1.156-.734.385-.282.713-.677.984-1.188.271-.51.406-1.099.406-1.766 0-1.333-.572-2.468-1.718-3.406C8.948.47 7.688 0 6.313 0 4.042 0 2.25.948.938 2.844c-.125.166-.172.349-.141.547.031.198.13.359.297.484l1.343 1.031c.167.125.35.172.547.14.198-.03.36-.13.485-.296.312-.354.573-.63.781-.828.208-.198.464-.365.766-.5.302-.136.65-.203 1.046-.203.521 0 1.01.146 1.47.437.458.292.687.667.687 1.125 0 .313-.115.578-.344.797-.23.219-.625.484-1.188.797-.395.23-.692.406-.89.531-.198.125-.458.328-.781.61-.323.28-.552.599-.688.953-.135.354-.203.76-.203 1.219V10c0 .208.073.385.219.531.146.146.323.219.531.219h2.25zM6 16c.604 0 1.115-.214 1.531-.64.417-.428.625-.938.625-1.532 0-.594-.208-1.104-.625-1.531-.416-.427-.927-.64-1.531-.64-.604 0-1.115.218-1.531.655-.417.417-.625.922-.625 1.516s.208 1.104.625 1.531c.416.427.927.641 1.531.641z"/>
</svg>
