<svg xmlns="http://www.w3.org/2000/svg" width="152" height="40" viewBox="0 0 152 40">
    <g fill="none" fill-rule="evenodd">
        <path fill="#4285F4" fill-rule="nonzero" d="M10.54 20.822c-2.786.036-5.466-1.065-7.423-3.048-2.02-1.9-3.15-4.561-3.116-7.334-.034-2.773 1.097-5.433 3.116-7.335C5.064 1.102 7.747-.02 10.54.001c2.661-.036 5.226.998 7.12 2.868L15.66 4.905c-1.371-1.325-3.212-2.053-5.118-2.024-2-.025-3.918.791-5.287 2.25-1.422 1.41-2.206 3.34-2.171 5.342-.017 1.98.766 3.882 2.17 5.276 2.897 2.887 7.566 2.941 10.53.124.882-.967 1.423-2.195 1.54-3.499h-6.749v-2.88h9.55c.094.58.132 1.168.113 1.755.12 2.456-.77 4.854-2.463 6.637-1.885 1.962-4.515 3.03-7.233 2.936z"/>
        <path fill="#EA4335" fill-rule="nonzero" d="M32.745 9.348c1.289 1.252 1.995 2.986 1.946 4.781.047 1.798-.663 3.532-1.957 4.78h.011c-2.663 2.553-6.864 2.553-9.527 0-1.29-1.25-1.996-2.984-1.946-4.78-.048-1.795.657-3.53 1.946-4.78 2.665-2.547 6.862-2.547 9.527 0zm-4.775.728c-1.008 0-1.973.412-2.671 1.14-.753.78-1.158 1.83-1.125 2.913-.029 1.081.381 2.128 1.136 2.902h.011c.69.736 1.653 1.154 2.66 1.154 1.009 0 1.972-.418 2.66-1.154.698-.72 1.098-1.674 1.126-2.671v-.23c.033-1.084-.372-2.135-1.125-2.914-.698-.728-1.663-1.14-2.672-1.14z"/>
        <path fill="#FBBC05" fill-rule="nonzero" d="M47.391 9.348c1.289 1.252 1.994 2.986 1.946 4.781.05 1.796-.656 3.53-1.946 4.78-2.663 2.553-6.865 2.553-9.527 0-1.29-1.25-1.996-2.984-1.946-4.78-.049-1.795.657-3.53 1.946-4.78 2.662-2.553 6.864-2.553 9.527 0zm-4.775.728c-1.009 0-1.973.412-2.671 1.14-.753.78-1.159 1.83-1.125 2.913-.029 1.081.38 2.128 1.136 2.902h.011c.69.736 1.652 1.154 2.66 1.154 1.008 0 1.972-.418 2.66-1.154.698-.72 1.097-1.674 1.126-2.671v-.23c.033-1.084-.373-2.135-1.125-2.914-.698-.728-1.663-1.14-2.672-1.14z"/>
        <path fill="#4285F4" fill-rule="nonzero" d="M56.964 7.414c.715-.002 1.422.156 2.07.46.56.245 1.059.61 1.462 1.07h.101v-1.07h2.79v11.98c.148 1.916-.499 3.808-1.789 5.231-1.228 1.175-2.88 1.804-4.578 1.744-1.348.043-2.67-.378-3.746-1.193-.955-.717-1.707-1.67-2.182-2.767l2.565-1.068c.279.655.715 1.23 1.27 1.676.595.479 1.341.73 2.104.708.98.06 1.936-.31 2.621-1.012.678-.817 1.012-1.866.934-2.925v-.967h-.102c-.869 1.032-2.173 1.595-3.52 1.519-1.708.005-3.34-.705-4.5-1.958-1.258-1.242-1.953-2.945-1.923-4.713-.032-1.778.663-3.492 1.923-4.747 1.158-1.258 2.79-1.972 4.5-1.968zm.258 2.71c-.998-.02-1.957.39-2.632 1.125-.744.786-1.148 1.832-1.125 2.914-.023 1.071.382 2.108 1.125 2.88.672.742 1.63 1.16 2.632 1.147.973.021 1.904-.391 2.543-1.125.694-.795 1.06-1.825 1.023-2.88.042-1.072-.324-2.121-1.023-2.936-.638-.735-1.57-1.147-2.543-1.124z"/>
        <path fill="#34A853" fill-rule="nonzero" d="M68.347 0.755L68.347 20.417 65.411 20.417 65.411 0.755z"/>
        <path fill="#EA4335" fill-rule="nonzero" d="M76.098 7.436c.771-.008 1.537.141 2.25.439.64.259 1.226.641 1.72 1.125.425.41.802.866 1.125 1.36.261.418.483.859.664 1.317l.304.765-9 3.7c.558 1.28 1.846 2.086 3.24 2.025 1.349.004 2.6-.7 3.296-1.856l2.25 1.519c-.574.821-1.31 1.518-2.16 2.047-1.012.64-2.189.968-3.386.945-1.777.046-3.493-.651-4.735-1.923-1.26-1.263-1.948-2.987-1.901-4.77-.068-1.787.594-3.525 1.833-4.814 1.169-1.232 2.802-1.914 4.5-1.879zm.056 2.587c-.916.024-1.785.408-2.419 1.069-.768.735-1.168 1.774-1.09 2.835l5.983-2.486c-.184-.439-.514-.8-.933-1.024-.47-.265-1.002-.401-1.541-.394z"/>
        <path fill="#FFF" d="M97.537 20.822c-2.523.044-4.954-.943-6.733-2.733-1.78-1.79-2.752-4.227-2.693-6.75-.059-2.522.914-4.96 2.693-6.75 1.779-1.789 4.21-2.776 6.733-2.732 2.56-.08 5.017 1.013 6.67 2.97L102.589 6.4c-1.216-1.529-3.088-2.385-5.04-2.306-1.871-.042-3.679.681-5.005 2.003-1.38 1.387-2.118 3.287-2.036 5.241-.082 1.955.656 3.855 2.036 5.242 1.326 1.322 3.134 2.045 5.006 2.003 2.177.024 4.247-.945 5.624-2.633l1.62 1.62c-.848 1.014-1.913 1.825-3.116 2.374-1.297.598-2.712.898-4.14.877zM109.146 20.417L106.817 20.417 106.817 2.251 109.146 2.251z"/>
        <path fill="#FFF" fill-rule="nonzero" d="M112.948 9.483c2.54-2.522 6.639-2.522 9.179 0 1.205 1.273 1.853 2.973 1.8 4.725.053 1.751-.595 3.452-1.8 4.724-2.54 2.523-6.64 2.523-9.18 0-1.204-1.272-1.852-2.973-1.799-4.724-.053-1.752.595-3.452 1.8-4.725zm1.732 7.987c.742.784 1.773 1.227 2.852 1.227s2.11-.443 2.851-1.227c.822-.882 1.256-2.057 1.204-3.262.052-1.205-.382-2.38-1.204-3.262-.741-.784-1.772-1.228-2.851-1.228-1.08 0-2.11.444-2.852 1.228-.822.882-1.256 2.057-1.203 3.262-.046 1.202.391 2.373 1.214 3.25l-.01.012z"/>
        <path fill="#FFF" d="M136.829 20.417h-2.25v-1.721h-.068c-.4.654-.967 1.19-1.642 1.552-.7.406-1.496.62-2.306.619-1.332.091-2.632-.43-3.532-1.417-.852-1.078-1.28-2.43-1.203-3.802v-7.65h2.328v7.222c0 2.317 1.024 3.476 3.07 3.476.924.029 1.804-.39 2.363-1.125.604-.765.925-1.714.911-2.688V7.999h2.329v12.418z"/>
        <path fill="#FFF" fill-rule="nonzero" d="M144.736 20.822c-1.598.005-3.119-.69-4.162-1.901-1.166-1.288-1.79-2.976-1.743-4.713-.047-1.737.577-3.425 1.743-4.713 1.043-1.212 2.564-1.907 4.162-1.901.885-.014 1.76.195 2.543.607.688.346 1.27.87 1.687 1.519h.101l-.101-1.721V2.25h2.328v18.166h-2.25v-1.721h-.1c-.417.648-1 1.172-1.688 1.519-.776.408-1.642.617-2.52.607zm.383-2.126c1.065.016 2.085-.427 2.8-1.215.792-.9 1.196-2.077 1.126-3.273.07-1.197-.334-2.373-1.125-3.273-.72-.792-1.742-1.244-2.812-1.244-1.071 0-2.092.452-2.813 1.244-.793.894-1.198 2.068-1.124 3.262-.074 1.193.33 2.367 1.124 3.262.718.802 1.748 1.253 2.824 1.237z"/>
        <path fill="#FFF" d="M1.218 36.003v3.593H.006v-8.957h3.426c.956 0 1.698.246 2.227.738.529.493.794 1.14.794 1.944 0 .816-.265 1.467-.794 1.953s-1.271.73-2.227.73H1.218zm0-.947h2.214c.607 0 1.06-.163 1.36-.489.299-.326.449-.737.449-1.233 0-.497-.151-.91-.452-1.243-.302-.332-.754-.498-1.357-.498H1.218v3.463zm10.722 4.54c-.041-.201-.073-.378-.096-.532-.022-.154-.035-.309-.04-.465-.225.32-.52.588-.882.803-.363.215-.754.323-1.172.323-.693 0-1.221-.177-1.584-.532-.363-.355-.545-.844-.545-1.467 0-.636.258-1.133.772-1.492.515-.359 1.213-.538 2.095-.538h1.316v-.658c0-.39-.119-.699-.356-.926-.238-.228-.575-.342-1.01-.342-.389 0-.706.1-.95.299-.244.199-.366.438-.366.716H7.966l-.012-.037c-.025-.483.204-.926.685-1.328.482-.402 1.105-.603 1.867-.603.755 0 1.362.192 1.821.575.46.384.69.936.69 1.658v3.205c0 .238.012.467.036.689.025.221.07.439.136.652h-1.25zm-2.012-.886c.439 0 .835-.113 1.187-.338.353-.226.583-.484.69-.775v-1.083h-1.36c-.488 0-.879.123-1.172.37-.293.245-.44.534-.44.866 0 .296.092.53.277.702.185.172.457.258.818.258zm7.997-4.7l-.621-.037c-.32 0-.59.076-.809.228-.22.152-.389.365-.508.64v4.755h-1.211V32.94h1.082l.117.972c.189-.345.422-.613.698-.806.277-.193.596-.29.957-.29.09 0 .176.008.258.022.082.015.15.03.203.047l-.166 1.125zm2.768-2.676v1.606h1.262v.898h-1.262v4.042c0 .311.065.53.194.658.13.127.3.19.514.19.07 0 .146-.008.23-.024.085-.016.16-.037.225-.062l.16.83c-.09.075-.222.135-.397.182-.174.048-.35.071-.526.071-.492 0-.883-.149-1.175-.446-.29-.297-.436-.764-.436-1.4v-4.04h-1.058v-.9h1.058v-1.605h1.211zm3.839 1.606l.086.99c.222-.352.5-.626.834-.82.334-.196.714-.293 1.14-.293.718 0 1.274.21 1.668.63.394.42.59 1.07.59 1.947v4.202H27.64v-4.177c0-.586-.116-1.003-.348-1.249-.232-.246-.585-.369-1.061-.369-.349 0-.657.084-.926.252-.269.169-.483.398-.643.69v4.853H23.45V32.94h1.083zm8.84 6.785c-.927 0-1.664-.308-2.212-.926-.547-.617-.82-1.418-.82-2.402v-.27c0-.948.281-1.736.845-2.366.564-.63 1.231-.944 2.002-.944.898 0 1.577.27 2.036.812.46.541.69 1.263.69 2.165v.757h-4.319l-.018.03c.012.64.174 1.166.486 1.579.311.412.748.618 1.31.618.41 0 .77-.059 1.08-.176.31-.116.577-.277.802-.482l.474.787c-.238.234-.552.429-.941.584-.39.156-.862.234-1.415.234zm-.185-5.955c-.406 0-.752.172-1.04.514-.286.342-.463.772-.528 1.289l.012.03h3.07v-.16c0-.475-.128-.873-.382-1.193-.254-.32-.631-.48-1.132-.48zm7.235.24l-.622-.037c-.32 0-.59.076-.809.228-.22.152-.388.365-.507.64v4.755h-1.212V32.94h1.083l.116.972c.19-.345.422-.613.699-.806.277-.193.595-.29.956-.29.09 0 .177.008.259.022.082.015.15.03.203.047l-.166 1.125z"/>
    </g>
</svg>
