<svg xmlns="http://www.w3.org/2000/svg" width="96" height="40" viewBox="0 0 96 40">
    <g fill="none" fill-rule="evenodd">
        <path fill="#FFF" d="M31.134 12.236h.626v-5.64h-.626zM33.578 12.236V8.185h.61v.267s.681-.348 1.257-.348c1.113 0 1.365.55 1.365 2.025v2.107h-.601v-2.098c0-1.078-.122-1.475-.861-1.475-.536 0-1.16.3-1.16.3v3.273h-.61M39.31 8.736v1.888c0 .883.049 1.126.585 1.126.227 0 .722-.04.722-.04l.033.526s-.536.09-.82.09c-.837 0-1.13-.316-1.13-1.483V8.736h-.576v-.551h.577v-1.24h.609v1.24h1.283v.55H39.31M44.409 9.976c0-.973-.317-1.33-1.023-1.33-.699 0-1.088.381-1.088 1.33h2.11zm.446 1.717l.017.495s-.918.13-1.576.13c-1.218 0-1.615-.706-1.615-2.083 0-1.54.673-2.131 1.705-2.131 1.071 0 1.632.567 1.632 1.896l-.033.47h-2.687c.008.85.268 1.296 1.071 1.296.61 0 1.486-.073 1.486-.073zM46.495 12.236h.6V6.418h-.6zM48.882 12.236h.6V6.418h-.6zM51.244 12.236h1.334V8.185h-1.334v4.051zm0-4.967h1.334v-.705h-1.334v.705zM55.816 9.49c0-.698-.26-.86-.95-.86-.601 0-.894.22-.894.86 0 .583.203.85.877.85.682 0 .967-.21.967-.85zm-1.454 2.665c-.333.252-.455.397-.455.713 0 .56.236.762 1.153.762.82 0 1.186-.219 1.186-.754 0-.615-.268-.68-.999-.68-.292 0-.885-.04-.885-.04zm-1.055.762c0-.47.219-.689.64-1.005-.145-.097-.218-.308-.218-.559 0-.154.268-.64.268-.64-.333-.154-.634-.47-.634-1.224 0-.996.61-1.385 1.51-1.385.407 0 .845.105.845.105l1.186-.024v.518h-.731c.146.154.252.357.252.786 0 1.062-.52 1.37-1.576 1.37-.073 0-.308-.016-.398-.033 0 0-.146.357-.146.462 0 .324.073.373.983.373 1.16 0 1.575.227 1.575 1.191 0 .94-.666 1.321-1.81 1.321-1.284 0-1.746-.283-1.746-1.256zM60.687 9.976c0-.973-.317-1.33-1.023-1.33-.699 0-1.088.381-1.088 1.33h2.11zm.446 1.717l.016.495s-.917.13-1.575.13c-1.218 0-1.616-.706-1.616-2.083 0-1.54.674-2.131 1.706-2.131 1.072 0 1.632.567 1.632 1.896l-.033.47h-2.687c.008.85.268 1.296 1.072 1.296.609 0 1.485-.073 1.485-.073zM62.797 12.236V8.185h.61v.267s.681-.348 1.258-.348c1.112 0 1.364.55 1.364 2.025v2.107h-.6v-2.098c0-1.078-.123-1.475-.862-1.475-.535 0-1.16.3-1.16.3v3.273h-.61M68.53 8.736v1.888c0 .883.048 1.126.584 1.126.227 0 .722-.04.722-.04l.033.526s-.536.09-.82.09c-.836 0-1.129-.316-1.129-1.483V8.736h-.576v-.551h.576v-1.24h.61v1.24h1.282v.55H68.53M74.237 10.219h2.078l-.836-3.047h-.406l-.836 3.047zm.365-3.623h1.372l1.519 5.632h-.617l-.43-1.41H74.09l-.406 1.418h-.626l1.543-5.64zM81.04 9.49c0-.698-.26-.86-.95-.86-.6 0-.893.22-.893.86 0 .583.203.85.877.85.682 0 .966-.21.966-.85zm-1.453 2.665c-.333.252-.455.397-.455.713 0 .56.236.762 1.153.762.82 0 1.186-.219 1.186-.754 0-.615-.268-.68-.999-.68-.292 0-.885-.04-.885-.04zm-1.056.762c0-.47.22-.689.642-1.005-.146-.097-.22-.308-.22-.559 0-.154.269-.64.269-.64-.333-.154-.634-.47-.634-1.224 0-.996.61-1.385 1.51-1.385.406 0 .845.105.845.105l1.186-.024v.518h-.731c.146.154.251.357.251.786 0 1.062-.52 1.37-1.575 1.37-.073 0-.308-.016-.398-.033 0 0-.146.357-.146.462 0 .324.073.373.982.373 1.162 0 1.576.227 1.576 1.191 0 .94-.666 1.321-1.81 1.321-1.284 0-1.747-.283-1.747-1.256zM85.912 9.976c0-.973-.317-1.33-1.023-1.33-.699 0-1.089.381-1.089 1.33h2.112zm.446 1.717l.016.495s-.917.13-1.575.13c-1.218 0-1.616-.706-1.616-2.083 0-1.54.674-2.131 1.706-2.131 1.072 0 1.632.567 1.632 1.896l-.033.47H83.8c.009.85.269 1.296 1.072 1.296.61 0 1.486-.073 1.486-.073zM88.022 12.236V8.185h.609v.267s.682-.348 1.259-.348c1.112 0 1.364.55 1.364 2.025v2.107h-.601v-2.098c0-1.078-.122-1.475-.861-1.475-.536 0-1.161.3-1.161.3v3.273h-.609M93.754 8.736v1.888c0 .883.048 1.126.584 1.126.228 0 .723-.04.723-.04l.033.526s-.536.09-.82.09c-.837 0-1.13-.316-1.13-1.483V8.736h-.576v-.551h.577v-1.24h.609v1.24h1.283v.55h-1.283"/>
        <path fill="#FFFFFE" d="M.015 39.992h23.611V.232H.016z"/>
        <path fill="#EC006D" d="M23.626 39.993L18.82 40c-.694 0-.941-.058-1.203-.671-1.063-2.485-.823-3.23.36-4.494.993-1.06.893-1.913.075-3.462 0 0-.823-1.587-1.243-2.447-.408-.843 1.75-1.303.954-2.414-.506-.704-2.328-3.3-3.882-5.509-1.494-2.126-3.323-3.726-5.408-3.598-3.428.205-6.84 3.628-5.12 9.23.926 3.019 3.017 10.03 3.413 11.361.397 1.335.29 1.988-.999 1.988-.598 0-5.767.01-5.767.01V.23h23.626v39.762zM11.258 20.9a.79.79 0 0 0-.789.794c0 .44.352.796.789.796.436 0 .79-.355.79-.796a.79.79 0 0 0-.79-.794z"/>
        <path fill="#C9D200" d="M6.904 6.974c-.27.49-1.158 1.516-2.66.967-.566-.21-1.006-.722-1.17-1.36-.222-.868.026-1.77.712-2.215.258-.169 1.053-.315 1.287.175.113-.427.3-.872.641-1.31l.895.06s-.803.541-1.368 2.017c.366-.54.889-.706 1.239-.588.979.332.794 1.578.424 2.254m6.29-2.254c-.35-.118-.873.049-1.239.588.565-1.476 1.367-2.017 1.367-2.017l-.895-.06c-.34.438-.528.883-.639 1.31-.234-.49-1.03-.344-1.287-.175-.687.445-.935 1.347-.711 2.214.162.639.602 1.15 1.169 1.361 1.5.55 2.39-.478 2.66-.967.37-.676.554-1.922-.426-2.254m6.714 0c-.349-.118-.873.049-1.238.588.565-1.476 1.368-2.017 1.368-2.017l-.896-.06a3.56 3.56 0 0 0-.639 1.31c-.233-.49-1.03-.344-1.288-.175-.686.445-.934 1.347-.712 2.214.164.639.603 1.15 1.17 1.361 1.502.55 2.392-.478 2.66-.967.371-.676.555-1.922-.425-2.254M6.48 11.15c-.35-.12-.873.047-1.24.586.566-1.475 1.37-2.017 1.37-2.017l-.896-.06c-.34.438-.528.887-.64 1.31-.235-.487-1.03-.343-1.288-.173-.686.443-.934 1.345-.711 2.214.163.638.603 1.151 1.17 1.36 1.501.55 2.39-.48 2.66-.967.369-.675.554-1.923-.425-2.253m6.713 0c-.35-.12-.872.047-1.238.586.565-1.475 1.367-2.017 1.367-2.017l-.895-.06c-.34.438-.528.887-.639 1.31-.234-.487-1.03-.343-1.287-.173-.687.443-.935 1.345-.711 2.214.162.638.602 1.151 1.169 1.36 1.5.55 2.39-.48 2.66-.967.37-.675.554-1.923-.426-2.253m6.714 0c-.349-.12-.873.047-1.238.586.565-1.475 1.368-2.017 1.368-2.017l-.896-.06a3.58 3.58 0 0 0-.639 1.31c-.233-.487-1.03-.343-1.288-.173-.686.443-.934 1.345-.712 2.214.164.638.603 1.151 1.17 1.36 1.502.55 2.392-.48 2.66-.967.371-.675.555-1.923-.425-2.253"/>
        <path fill="#FFF" d="M50.355 20.481c-2.243 2.17-7.067 9.269-9.514 12.931-.475.7-.974 1.017-1.495 1.017-.385 0-.793-.203-1.223-.52-.498-.407-1.722-.542-1.699-1.899.023-2.215 1.065-5.945 1.586-8.183-1.744 2.487-6.343 9.472-6.66 10.037-.181.316-.498.452-.86.452-.748 0-1.632-.61-1.632-1.514 0-.226.068-.475.182-.746.226-.43 8.426-12.411 8.788-12.976.159-.226.386-.34.68-.34.34 0 .747.159 1.178.34.634.294 1.223.135 1.857.655.295.272.68.52.68.927 0 .068 0 .136-.023.226-.498 1.492-2.106 4.521-2.514 9.246 1.382-1.876 7.86-11.394 8.177-11.89.136-.25.43-.34.793-.34.77 0 2.243.678 2.243 1.605 0 .294-.159.61-.544.972M53.163 26.562c-1.155 0-3.375 2.623-3.964 3.482 1.563.045 4.077-2.758 4.077-3.369 0-.067-.045-.113-.113-.113zm2.13 4.747c-.907 1.605-3.852 3.618-5.415 3.618-.77 0-1.812-.453-2.56-1.289-.498-.565-1.222-.995-1.222-2.554 0-2.148 4.847-7.37 6.886-7.415.657 0 .815.158 1.472 1.13.272.43.77.972.77 1.718 0 2.871-4.349 5.2-6.863 5.2h-.068c-.114.316-.182.61-.182.859 0 .61.363 1.017 1.269 1.017 2.628 0 4.644-2.645 5.346-3.075.023-.022.068-.022.09-.022.227 0 .521.271.521.588 0 .067-.022.135-.045.225zM68 29.953c-.816 1.402-3.58 4.68-5.324 4.702-1.608.023-1.97-1.424-1.97-2.622v-.159c-.612.679-2.017 2.465-2.99 2.465-1.201.022-2.085-1.47-2.085-2.78 0-.25.023-.475.091-.702.408-1.469 3.149-4.724 4.462-6.33.227-.293.476-.406.725-.406.544 0 1.858.746 1.858 1.31 0 .182-.068.363-.272.543-2.492 2.352-4.304 4.974-4.712 6.217-.068.158-.09.317-.09.43 0 .18.068.27.272.27.135 0 .34-.067.543-.27 2.016-1.944 6.365-7.754 6.75-8.41.068-.136.227-.203.386-.203.657 0 1.766.814 1.766 1.514 0 .159-.068.317-.226.475-.815.791-4.44 5.403-4.44 6.76 0 .225.113.361.34.361 1.087.023 3.896-3.12 4.281-3.572.136-.158.295-.226.43-.226.16 0 .295.113.295.317 0 .09-.023.18-.09.316"/>
        <path fill="#FFF" d="M77.49 25.16h-.068c-.453-.112-1.02-.157-1.609-.157-.634 0-1.336.045-2.016.112-2.038 2.713-4.371 6.217-4.371 7.687 0 .406.204.678.634.678 1.042 0 3.33-2.17 4.168-3.052.181-.181.294-.272.385-.272.113 0 .158.114.158.295 0 .384-.226 1.017-.498 1.31-.86.95-2.763 2.826-4.122 2.826-.59 0-1.201-.27-1.88-.926-.59-.566-.793-1.108-.793-1.65 0-.317.068-.634.158-.95.498-1.47 1.744-3.595 3.08-5.606-.203 0-.362.022-.52.022-.045 0-.09-.022-.113-.022-.59 0-1.178-.746-1.178-1.199 0-.18.113-.316.362-.316.77 0 1.54.045 2.31.045h.114c1.359-2.012 2.627-3.73 2.944-4.295a.454.454 0 0 1 .408-.226c.476 0 2.039.995 2.039 1.515 0 .18-.113.384-.362.61-.295.249-1.065 1.153-2.017 2.374 1.292-.023 2.334-.068 2.515-.068.385-.023.543.52.543.836 0 .226-.09.43-.271.43"/>
        <path fill="#FFF" d="M82.269 26.178c-1.473 0-5.324 4.34-5.324 6.126 0 .452.272.746.884.746 1.11 0 4.87-4.86 4.87-6.397 0-.294-.136-.475-.43-.475zm1.79.995c-.091 2.486-3.693 7.324-5.936 7.324-.86 0-1.585-.61-1.993-1.062-.295-.317-1.246-1.018-1.246-2.148 0-3.074 3.964-6.782 5.436-7.37a1.3 1.3 0 0 1 .544-.113c.748 0 1.291.61 1.54.837.68.61 1.654.655 1.654 2.35v.182zM95.95 30.36c-.793 1.718-2.786 3.843-4.802 3.843-.997.023-1.54-.814-1.54-2.012 0-.927.973-2.848 1.857-3.933-2.084 1.401-5.573 6.261-6.048 6.261-.725 0-1.722-.723-1.722-1.378 0-.068.023-.159.045-.204.34-.927 4.168-7.618 4.44-8.047.227-.362.453-.475.68-.475.43 0 1.79.836 1.79 1.266 0 .09-.023.203-.091.316-.204.34-2.515 4.047-3.443 5.403 1.562-1.718 5.685-6.217 6.116-6.714.18-.181.34-.249.52-.249.454 0 1.813 1.04 1.813 1.515 0 .158-.09.34-.272.565-2.31 2.871-3.534 4.95-3.534 5.81 0 .294.204.565.499.542.815 0 2.854-2.238 3.33-2.893a.251.251 0 0 1 .226-.113c.136 0 .181.068.181.271 0 .068 0 .136-.045.226"/>
    </g>
</svg>
