<svg xmlns="http://www.w3.org/2000/svg" width="152" height="40" viewBox="0 0 152 40">
    <g fill="none" fill-rule="evenodd">
        <path fill="#4285F4" fill-rule="nonzero" d="M10.54 20.822a10.247 10.247 0 0 1-7.423-3.048A9.899 9.899 0 0 1 0 10.44a9.91 9.91 0 0 1 3.116-7.335A10.247 10.247 0 0 1 10.54.001a9.944 9.944 0 0 1 7.12 2.868L15.66 4.905a7.21 7.21 0 0 0-5.118-2.024c-2-.025-3.918.791-5.287 2.25a7.345 7.345 0 0 0-2.171 5.342 7.345 7.345 0 0 0 2.17 5.276 7.548 7.548 0 0 0 10.53.124 5.984 5.984 0 0 0 1.54-3.499h-6.749v-2.88h9.55c.094.58.132 1.168.113 1.755a8.999 8.999 0 0 1-2.463 6.637 9.573 9.573 0 0 1-7.233 2.936z"/>
        <path fill="#EA4335" fill-rule="nonzero" d="M32.745 9.348a6.423 6.423 0 0 1 1.946 4.781 6.412 6.412 0 0 1-1.957 4.78h.011a6.884 6.884 0 0 1-9.527 0 6.412 6.412 0 0 1-1.946-4.78 6.423 6.423 0 0 1 1.946-4.78 6.895 6.895 0 0 1 9.527 0zm-4.775.728a3.7 3.7 0 0 0-2.671 1.14 4.016 4.016 0 0 0-1.125 2.913 4.004 4.004 0 0 0 1.136 2.902h.011a3.645 3.645 0 0 0 5.32 0 4.005 4.005 0 0 0 1.126-2.671v-.23a4.016 4.016 0 0 0-1.125-2.914 3.7 3.7 0 0 0-2.672-1.14z"/>
        <path fill="#FBBC05" fill-rule="nonzero" d="M47.391 9.348a6.423 6.423 0 0 1 1.946 4.781 6.412 6.412 0 0 1-1.946 4.78 6.884 6.884 0 0 1-9.527 0 6.412 6.412 0 0 1-1.946-4.78 6.423 6.423 0 0 1 1.946-4.78 6.884 6.884 0 0 1 9.527 0zm-4.775.728a3.7 3.7 0 0 0-2.671 1.14 4.016 4.016 0 0 0-1.125 2.913 4.005 4.005 0 0 0 1.136 2.902h.011a3.645 3.645 0 0 0 5.32 0 4.005 4.005 0 0 0 1.126-2.671v-.23a4.016 4.016 0 0 0-1.125-2.914 3.7 3.7 0 0 0-2.672-1.14z"/>
        <path fill="#4285F4" fill-rule="nonzero" d="M56.964 7.414a4.837 4.837 0 0 1 2.07.46c.56.245 1.059.61 1.462 1.07h.101v-1.07h2.79v11.98a6.985 6.985 0 0 1-1.789 5.231 6.3 6.3 0 0 1-4.578 1.744 5.894 5.894 0 0 1-3.746-1.193 6.895 6.895 0 0 1-2.182-2.767l2.565-1.068a4.32 4.32 0 0 0 1.27 1.676c.595.479 1.341.73 2.104.708.98.06 1.936-.31 2.621-1.012a4.106 4.106 0 0 0 .934-2.925v-.967h-.102a4.286 4.286 0 0 1-3.52 1.519 6.108 6.108 0 0 1-4.5-1.958 6.468 6.468 0 0 1-1.923-4.713 6.535 6.535 0 0 1 1.923-4.747 6.097 6.097 0 0 1 4.5-1.968zm.258 2.71a3.476 3.476 0 0 0-2.632 1.125 4.106 4.106 0 0 0-1.125 2.914 4.027 4.027 0 0 0 1.125 2.88 3.487 3.487 0 0 0 2.632 1.147 3.273 3.273 0 0 0 2.543-1.125 4.162 4.162 0 0 0 1.023-2.88 4.252 4.252 0 0 0-1.023-2.936 3.262 3.262 0 0 0-2.543-1.124z"/>
        <path fill="#34A853" fill-rule="nonzero" d="M68.347.755v19.662h-2.936V.755z"/>
        <path fill="#EA4335" fill-rule="nonzero" d="M76.098 7.436a5.68 5.68 0 0 1 2.25.439A5.298 5.298 0 0 1 80.067 9c.425.41.802.866 1.125 1.36.261.418.483.859.664 1.317l.304.765-9 3.7a3.375 3.375 0 0 0 3.24 2.025 3.836 3.836 0 0 0 3.296-1.856l2.25 1.519a7.413 7.413 0 0 1-2.16 2.047 6.12 6.12 0 0 1-3.386.945 6.39 6.39 0 0 1-4.735-1.923 6.513 6.513 0 0 1-1.901-4.77 6.592 6.592 0 0 1 1.833-4.814 6.03 6.03 0 0 1 4.5-1.879zm.056 2.587a3.476 3.476 0 0 0-2.419 1.069 3.566 3.566 0 0 0-1.09 2.835l5.983-2.486a2.07 2.07 0 0 0-.933-1.024 3.048 3.048 0 0 0-1.541-.394z"/>
        <path fill="#5F6368" d="M97.537 20.822a9.269 9.269 0 0 1-9.426-9.483 9.269 9.269 0 0 1 9.426-9.482 8.391 8.391 0 0 1 6.67 2.97L102.589 6.4a6.12 6.12 0 0 0-5.04-2.306 6.873 6.873 0 0 0-5.005 2.003 7.02 7.02 0 0 0-2.036 5.241 7.02 7.02 0 0 0 2.036 5.242 6.873 6.873 0 0 0 5.006 2.003 7.154 7.154 0 0 0 5.624-2.633l1.62 1.62a8.841 8.841 0 0 1-3.116 2.374 9.539 9.539 0 0 1-4.14.877zM109.146 20.417h-2.329V2.251h2.329z"/>
        <path fill="#5F6368" fill-rule="nonzero" d="M112.948 9.483a6.513 6.513 0 0 1 9.179 0 6.58 6.58 0 0 1 1.8 4.725 6.58 6.58 0 0 1-1.8 4.724 6.513 6.513 0 0 1-9.18 0 6.58 6.58 0 0 1-1.799-4.724 6.58 6.58 0 0 1 1.8-4.725zm1.732 7.987a3.926 3.926 0 0 0 5.703 0 4.5 4.5 0 0 0 1.204-3.262 4.5 4.5 0 0 0-1.204-3.262 3.926 3.926 0 0 0-5.703 0 4.5 4.5 0 0 0-1.203 3.262 4.5 4.5 0 0 0 1.214 3.25l-.01.012z"/>
        <path fill="#5F6368" d="M136.829 20.417h-2.25v-1.721h-.068a4.33 4.33 0 0 1-1.642 1.552 4.59 4.59 0 0 1-2.306.619 4.376 4.376 0 0 1-3.532-1.417 5.624 5.624 0 0 1-1.203-3.802v-7.65h2.328v7.222c0 2.317 1.024 3.476 3.07 3.476a2.857 2.857 0 0 0 2.363-1.125 4.24 4.24 0 0 0 .911-2.688V7.999h2.329v12.418z"/>
        <path fill="#5F6368" fill-rule="nonzero" d="M144.736 20.822a5.467 5.467 0 0 1-4.162-1.901 6.75 6.75 0 0 1-1.743-4.713 6.75 6.75 0 0 1 1.743-4.713 5.467 5.467 0 0 1 4.162-1.901 5.276 5.276 0 0 1 2.543.607c.688.346 1.27.87 1.687 1.519h.101l-.101-1.721V2.25h2.328v18.166h-2.25v-1.721h-.1c-.417.648-1 1.172-1.688 1.519a5.276 5.276 0 0 1-2.52.607zm.383-2.126a3.712 3.712 0 0 0 2.8-1.215 4.556 4.556 0 0 0 1.126-3.273 4.556 4.556 0 0 0-1.125-3.273 3.802 3.802 0 0 0-5.625 0 4.5 4.5 0 0 0-1.124 3.262 4.5 4.5 0 0 0 1.124 3.262 3.712 3.712 0 0 0 2.824 1.237z"/>
        <path fill="#999" d="M1.218 36.003v3.593H.006v-8.957h3.426c.956 0 1.698.246 2.227.738.529.493.794 1.14.794 1.944 0 .816-.265 1.467-.794 1.953s-1.271.73-2.227.73H1.218zm0-.947h2.214c.607 0 1.06-.163 1.36-.489.299-.326.449-.737.449-1.233 0-.497-.151-.91-.452-1.243-.302-.332-.754-.498-1.357-.498H1.218v3.463zm10.722 4.54a9.847 9.847 0 0 1-.096-.532 3.906 3.906 0 0 1-.04-.465c-.225.32-.52.588-.882.803a2.258 2.258 0 0 1-1.172.323c-.693 0-1.221-.177-1.584-.532-.363-.355-.545-.844-.545-1.467 0-.636.258-1.133.772-1.492.515-.359 1.213-.538 2.095-.538h1.316v-.658c0-.39-.119-.699-.356-.926-.238-.228-.575-.342-1.01-.342-.389 0-.706.1-.95.299-.244.199-.366.438-.366.716H7.966l-.012-.037c-.025-.483.204-.926.685-1.328.482-.402 1.105-.603 1.867-.603.755 0 1.362.192 1.821.575.46.384.69.936.69 1.658v3.205c0 .238.012.467.036.689.025.221.07.439.136.652h-1.25zm-2.012-.886c.439 0 .835-.113 1.187-.338.353-.226.583-.484.69-.775v-1.083h-1.36c-.488 0-.879.123-1.172.37-.293.245-.44.534-.44.866 0 .296.092.53.277.702.185.172.457.258.818.258zm7.997-4.7l-.621-.037c-.32 0-.59.076-.809.228a1.46 1.46 0 0 0-.508.64v4.755h-1.211V32.94h1.082l.117.972a2.31 2.31 0 0 1 .698-.806c.277-.193.596-.29.957-.29a1.712 1.712 0 0 1 .461.068l-.166 1.126zm2.768-2.676v1.606h1.262v.898h-1.262v4.042c0 .311.065.53.194.658a.7.7 0 0 0 .514.19 1.412 1.412 0 0 0 .455-.086l.16.83a1.07 1.07 0 0 1-.397.182c-.174.048-.35.071-.526.071-.492 0-.883-.149-1.175-.446-.29-.297-.436-.764-.436-1.4v-4.04h-1.058v-.9h1.058v-1.605h1.211zm3.839 1.606l.086.99c.222-.352.5-.626.834-.82a2.224 2.224 0 0 1 1.14-.293c.718 0 1.274.21 1.668.63.394.42.59 1.07.59 1.947v4.202H27.64v-4.177c0-.586-.116-1.003-.348-1.249-.232-.246-.585-.369-1.061-.369-.349 0-.657.084-.926.252a1.842 1.842 0 0 0-.643.69v4.853H23.45V32.94h1.083zm8.84 6.785c-.927 0-1.664-.308-2.212-.926-.547-.617-.82-1.418-.82-2.402v-.27c0-.948.281-1.736.845-2.366.564-.63 1.231-.944 2.002-.944.898 0 1.577.27 2.036.812.46.541.69 1.263.69 2.165v.757h-4.319l-.018.03c.012.64.174 1.166.486 1.579.311.412.748.618 1.31.618.41 0 .77-.059 1.08-.176.31-.116.577-.277.802-.482l.474.787c-.238.234-.552.429-.941.584-.39.156-.862.234-1.415.234zm-.185-5.955c-.406 0-.752.172-1.04.514-.286.342-.463.772-.528 1.289l.012.03h3.07v-.16c0-.475-.128-.873-.382-1.193-.254-.32-.631-.48-1.132-.48zm7.235.24l-.622-.037c-.32 0-.59.076-.809.228a1.46 1.46 0 0 0-.507.64v4.755h-1.212V32.94h1.083l.116.972a2.31 2.31 0 0 1 .699-.806c.277-.193.595-.29.956-.29a1.712 1.712 0 0 1 .461.068l-.165 1.126z"/>
    </g>
</svg>
