<svg xmlns="http://www.w3.org/2000/svg" width="12" height="12" viewBox="0 0 12 12">
    <path fill="#FFF" d="M9.844 11.5c.27 0 .51-.094.719-.281l.687-.688c.188-.208.281-.448.281-.719 0-.27-.094-.5-.281-.687L8.125 6l3.125-3.125c.188-.188.281-.417.281-.688 0-.27-.094-.51-.281-.718L10.562.78C10.354.594 10.116.5 9.845.5c-.271 0-.5.094-.688.281L6.031 3.906 2.906.781C2.72.594 2.49.5 2.22.5c-.271 0-.51.094-.719.281l-.688.688c-.187.208-.28.448-.28.718 0 .271.093.5.28.688L3.938 6 .813 9.125c-.188.188-.282.417-.282.688 0 .27.094.51.281.718l.688.688c.208.187.448.281.719.281.27 0 .5-.094.687-.281l3.125-3.125 3.125 3.125c.188.187.417.281.688.281z"/>
</svg>
