<svg xmlns="http://www.w3.org/2000/svg" width="16" height="16" viewBox="0 0 16 16">
    <path fill="#FFF" d="M13.545 16c.394 0 .743-.136 1.046-.41l1-1c.273-.302.409-.65.409-1.045 0-.393-.136-.727-.41-1L11.046 8l4.546-4.545c.273-.273.409-.607.409-1 0-.394-.136-.743-.41-1.046l-1-1C14.289.136 13.94 0 13.546 0c-.393 0-.727.136-1 .41L8 4.954 3.455.409C3.182.136 2.848 0 2.455 0c-.394 0-.743.136-1.046.41l-1 1C.136 1.711 0 2.06 0 2.454c0 .393.136.727.41 1L4.954 8 .409 12.545c-.273.273-.409.607-.409 1 0 .394.136.743.41 1.046l1 1c.302.273.65.409 1.045.409.393 0 .727-.136 1-.41L8 11.046l4.545 4.546c.273.273.607.409 1 .409z"/>
</svg>
