<svg xmlns="http://www.w3.org/2000/svg" width="18" height="17" viewBox="0 0 18 17">
    <path fill="#FFF" d="M17.125 3.656c.182 0 .332-.058.45-.176.116-.117.175-.266.175-.449V1.47c0-.183-.059-.332-.176-.45-.117-.117-.267-.175-.449-.175H.875c-.182 0-.332.058-.45.176-.116.117-.175.266-.175.449V3.03c0 .183.059.332.176.45.117.117.267.175.449.175h16.25zm0 6.25c.182 0 .332-.058.45-.176.116-.117.175-.266.175-.449V7.72c0-.183-.059-.332-.176-.45-.117-.117-.267-.175-.449-.175H.875c-.182 0-.332.058-.45.176-.116.117-.175.266-.175.449V9.28c0 .183.059.332.176.45.117.117.267.175.449.175h16.25zm0 6.25c.182 0 .332-.058.45-.176.116-.117.175-.266.175-.449V13.97c0-.183-.059-.332-.176-.45-.117-.117-.267-.175-.449-.175H.875c-.182 0-.332.058-.45.176-.116.117-.175.266-.175.449v1.562c0 .183.059.332.176.45.117.117.267.175.449.175h16.25z"/>
</svg>
