<svg xmlns="http://www.w3.org/2000/svg" width="16" height="17" viewBox="0 0 16 17">
    <path fill="#A3B3C0" d="M11.377 16.069c1.262-.06 2.38-.348 3.301-1.273.921-.921 1.21-2.039 1.273-3.301.074-1.3.074-5.196 0-6.497-.06-1.262-.348-2.38-1.273-3.301C13.757.776 12.64.487 11.377.424c-1.3-.074-5.2-.074-6.5 0-1.259.06-2.377.348-3.302 1.27-.924.92-1.209 2.038-1.272 3.3-.074 1.301-.074 5.2 0 6.5.06 1.263.348 2.381 1.272 3.302.925.921 2.04 1.21 3.302 1.273 1.3.074 5.2.074 6.5 0zm-3.249-1.364c-1.146 0-3.61.091-4.644-.317-.689-.274-1.22-.805-1.497-1.497-.412-1.037-.317-3.498-.317-4.644 0-1.147-.091-3.611.317-4.645.274-.689.805-1.22 1.497-1.497 1.037-.412 3.498-.317 4.644-.317 1.147 0 3.611-.091 4.645.317.689.274 1.22.805 1.497 1.497.412 1.037.317 3.498.317 4.645 0 1.146.095 3.61-.317 4.644-.274.689-.805 1.22-1.497 1.497-1.037.412-3.498.317-4.645.317zm4.205-9.721c.52 0 .942-.418.942-.942 0-.52-.422-.942-.942-.942s-.942.422-.942.942.418.942.942.942zm-4.205 7.302c2.236 0 4.04-1.804 4.04-4.04 0-2.235-1.804-4.039-4.04-4.039-2.235 0-4.039 1.804-4.039 4.04 0 2.235 1.804 4.039 4.04 4.039zm0-1.413c-1.444 0-2.626-1.178-2.626-2.626 0-1.449 1.178-2.627 2.626-2.627 1.449 0 2.627 1.178 2.627 2.627 0 1.448-1.182 2.626-2.627 2.626z"/>
</svg>
