<svg xmlns="http://www.w3.org/2000/svg" width="20" height="14" viewBox="0 0 20 14">
    <path fill="#A3B3C0" d="M17.376 13.596c.826-.222 1.477-.85 1.698-1.681.347-1.306.394-3.842.4-4.495v-.313c-.006-.653-.053-3.189-.4-4.495-.221-.831-.872-1.486-1.698-1.708-1.31-.353-6.07-.398-7.24-.403h-.522c-1.17.005-5.93.05-7.24.403-.826.222-1.477.877-1.698 1.708C.288 4.07.276 7.056.275 7.253v.01s0 3.145.401 4.652c.221.831.872 1.459 1.698 1.681 1.31.354 6.07.398 7.24.403h.522c1.17-.005 5.93-.05 7.24-.403zm-9.465-3.478v-5.71l5.018 2.856-5.018 2.854z"/>
</svg>
