<svg xmlns="http://www.w3.org/2000/svg" width="144" height="60" viewBox="0 0 144 60">
    <g fill="none" fill-rule="evenodd">
        <path fill="#FFF" d="M46.606 18.354L47.543 18.354 47.543 9.894 46.606 9.894zM50.265 18.354v-6.077h.912v.401s1.02-.523 1.883-.523c1.666 0 2.043.827 2.043 3.039v3.16h-.9v-3.148c0-1.617-.182-2.212-1.289-2.212-.802 0-1.737.45-1.737.45v4.91h-.912M58.845 13.103v2.832c0 1.325.073 1.69.875 1.69.34 0 1.082-.06 1.082-.06l.049.79s-.802.133-1.228.133c-1.252 0-1.69-.474-1.69-2.224v-3.16h-.862v-.827h.863v-1.86h.911v1.86h1.921v.826h-1.92M66.478 14.963c0-1.458-.474-1.993-1.532-1.993-1.045 0-1.628.571-1.628 1.993h3.16zm.668 2.577l.025.742s-1.374.194-2.358.194c-1.824 0-2.419-1.058-2.419-3.124 0-2.31 1.009-3.197 2.552-3.197 1.605 0 2.444.851 2.444 2.845l-.049.705h-4.023c.012 1.276.4 1.944 1.604 1.944.912 0 2.224-.109 2.224-.109zM69.601 18.354L70.5 18.354 70.5 9.627 69.601 9.627zM73.174 18.354L74.074 18.354 74.074 9.627 73.174 9.627zM76.71 18.354h1v-6.077h-1v6.077zm0-7.45h1V9.845h-1v1.057zM83.554 14.234c0-1.046-.39-1.289-1.423-1.289-.9 0-1.337.329-1.337 1.289 0 .875.304 1.276 1.313 1.276 1.02 0 1.447-.316 1.447-1.276zm-2.176 3.999c-.499.377-.681.596-.681 1.07 0 .838.352 1.142 1.726 1.142 1.228 0 1.775-.328 1.775-1.13 0-.924-.401-1.021-1.495-1.021-.438 0-1.325-.061-1.325-.061zm-1.58 1.142c0-.704.328-1.033.96-1.507-.219-.145-.328-.462-.328-.839 0-.23.4-.96.4-.96-.498-.23-.947-.704-.947-1.835 0-1.495.911-2.079 2.26-2.079.608 0 1.265.159 1.265.159l1.774-.037v.778h-1.094c.22.23.377.534.377 1.179 0 1.592-.778 2.054-2.358 2.054-.11 0-.462-.024-.596-.048 0 0-.218.534-.218.692 0 .486.109.56 1.47.56 1.739 0 2.359.34 2.359 1.786 0 1.41-.997 1.982-2.711 1.982-1.92 0-2.613-.426-2.613-1.885zM90.846 14.963c0-1.458-.475-1.993-1.532-1.993-1.045 0-1.629.571-1.629 1.993h3.16zm.668 2.577l.024.742s-1.373.194-2.358.194c-1.823 0-2.419-1.058-2.419-3.124 0-2.31 1.01-3.197 2.553-3.197 1.604 0 2.443.851 2.443 2.845l-.048.705h-4.024c.012 1.276.401 1.944 1.605 1.944.912 0 2.224-.109 2.224-.109zM94.005 18.354v-6.077h.912v.401s1.02-.523 1.883-.523c1.666 0 2.043.827 2.043 3.039v3.16h-.9v-3.148c0-1.617-.182-2.212-1.288-2.212-.803 0-1.738.45-1.738.45v4.91h-.912M102.585 13.103v2.832c0 1.325.073 1.69.875 1.69.34 0 1.082-.06 1.082-.06l.049.79s-.802.133-1.228.133c-1.252 0-1.69-.474-1.69-2.224v-3.16h-.862v-.827h.863v-1.86h.911v1.86h1.921v.826h-1.92M111.13 15.328h3.11l-1.25-4.57h-.609l-1.252 4.57zm.546-5.434h2.055l2.272 8.448h-.923l-.645-2.115h-3.524l-.608 2.127h-.936l2.31-8.46zM121.314 14.234c0-1.046-.389-1.289-1.422-1.289-.9 0-1.337.329-1.337 1.289 0 .875.304 1.276 1.313 1.276 1.02 0 1.446-.316 1.446-1.276zm-2.176 3.999c-.498.377-.68.596-.68 1.07 0 .838.352 1.142 1.726 1.142 1.227 0 1.774-.328 1.774-1.13 0-.924-.4-1.021-1.495-1.021-.437 0-1.325-.061-1.325-.061zm-1.58 1.142c0-.704.328-1.033.96-1.507-.218-.145-.328-.462-.328-.839 0-.23.401-.96.401-.96-.498-.23-.948-.704-.948-1.835 0-1.495.912-2.079 2.261-2.079.608 0 1.264.159 1.264.159l1.775-.037v.778h-1.094c.219.23.377.534.377 1.179 0 1.592-.778 2.054-2.358 2.054-.11 0-.462-.024-.596-.048 0 0-.219.534-.219.692 0 .486.11.56 1.47.56 1.74 0 2.36.34 2.36 1.786 0 1.41-.997 1.982-2.711 1.982-1.921 0-2.614-.426-2.614-1.885zM128.606 14.963c0-1.458-.474-1.993-1.531-1.993-1.046 0-1.63.571-1.63 1.993h3.161zm.669 2.577l.024.742s-1.373.194-2.358.194c-1.824 0-2.42-1.058-2.42-3.124 0-2.31 1.01-3.197 2.554-3.197 1.604 0 2.443.851 2.443 2.845l-.049.705h-4.023c.012 1.276.401 1.944 1.604 1.944.912 0 2.225-.109 2.225-.109zM131.765 18.354v-6.077h.912v.401s1.02-.523 1.884-.523c1.665 0 2.042.827 2.042 3.039v3.16h-.9v-3.148c0-1.617-.182-2.212-1.288-2.212-.803 0-1.738.45-1.738.45v4.91h-.912M140.345 13.103v2.832c0 1.325.073 1.69.875 1.69.341 0 1.082-.06 1.082-.06l.049.79s-.802.133-1.228.133c-1.252 0-1.69-.474-1.69-2.224v-3.16h-.862v-.827h.863v-1.86h.911v1.86h1.921v.826h-1.92M.023 59.989L35.367 59.989 35.367.348.023.348z"/>
        <path fill="#D81C63" d="M35.366 59.99l-7.193.01c-1.04 0-1.409-.088-1.8-1.007-1.592-3.727-1.233-4.846.536-6.74 1.488-1.59 1.338-2.87.114-5.194 0 0-1.232-2.38-1.861-3.67-.611-1.264 2.62-1.954 1.429-3.621-.757-1.056-3.486-4.95-5.811-8.263-2.237-3.19-4.975-5.589-8.096-5.398-5.131.307-10.24 5.443-7.666 13.845 1.388 4.529 4.518 15.046 5.11 17.043.595 2.002.435 2.982-1.494 2.982-.896 0-8.634.013-8.634.013V.346h35.366V59.99zM16.852 31.349c-.653 0-1.18.531-1.18 1.191s.527 1.194 1.18 1.194c.653 0 1.182-.534 1.182-1.194 0-.66-.529-1.191-1.182-1.191z"/>
        <path fill="#C9D200" d="M10.335 10.46c-.403.735-1.733 2.275-3.981 1.452-.848-.317-1.506-1.084-1.751-2.041-.333-1.302.038-2.654 1.065-3.322.386-.253 1.576-.472 1.927.262.168-.64.45-1.307.959-1.965l1.34.09s-1.203.813-2.049 3.026c.548-.81 1.33-1.059 1.855-.882 1.465.498 1.189 2.368.635 3.38m9.414-3.38c-.522-.177-1.304.073-1.853.882.846-2.213 2.046-3.026 2.046-3.026l-1.34-.09c-.509.658-.79 1.326-.956 1.965-.35-.734-1.541-.515-1.927-.262-1.027.668-1.4 2.02-1.064 3.322.242.957.901 1.724 1.75 2.04 2.246.824 3.58-.716 3.981-1.45.555-1.013.83-2.883-.637-3.38m10.051 0c-.522-.178-1.307.072-1.853.88.845-2.212 2.047-3.025 2.047-3.025l-1.34-.09c-.509.658-.79 1.326-.957 1.965-.35-.734-1.542-.515-1.929-.262-1.026.668-1.398 2.02-1.065 3.322.245.957.903 1.724 1.752 2.04 2.247.824 3.58-.716 3.98-1.45.557-1.013.832-2.883-.635-3.38M9.7 16.724c-.524-.181-1.307.07-1.855.878.846-2.212 2.049-3.024 2.049-3.024l-1.34-.09c-.51.656-.791 1.33-.96 1.963-.35-.729-1.54-.512-1.926-.258-1.027.664-1.398 2.018-1.065 3.32.245.958.903 1.728 1.751 2.04 2.248.825 3.578-.718 3.981-1.45.554-1.013.83-2.884-.635-3.38m10.05 0c-.523-.18-1.305.072-1.854.88.846-2.213 2.046-3.025 2.046-3.025l-1.34-.09c-.509.656-.79 1.33-.956 1.963-.35-.729-1.541-.512-1.927-.258-1.027.664-1.4 2.018-1.064 3.32.242.958.901 1.728 1.75 2.04 2.246.825 3.58-.718 3.981-1.45.555-1.013.83-2.884-.637-3.38m10.051 0c-.522-.18-1.307.072-1.853.88.845-2.213 2.047-3.025 2.047-3.025l-1.34-.09c-.509.656-.79 1.33-.957 1.963-.35-.729-1.542-.512-1.929-.258-1.026.664-1.398 2.018-1.065 3.32.245.958.903 1.728 1.752 2.04 2.247.825 3.58-.718 3.98-1.45.557-1.013.832-2.884-.635-3.38"/>
        <path fill="#FFF" d="M75.38 30.722c-3.358 3.255-10.58 13.903-14.243 19.396-.711 1.051-1.457 1.526-2.237 1.526-.577 0-1.187-.306-1.831-.78-.746-.61-2.578-.814-2.544-2.849.034-3.323 1.594-8.918 2.374-12.275-2.611 3.73-9.494 14.208-9.97 15.056-.27.475-.745.678-1.288.678-1.119 0-2.441-.915-2.441-2.272 0-.339.102-.712.27-1.119.34-.644 12.615-18.616 13.158-19.463.237-.34.576-.51 1.017-.51.509 0 1.119.238 1.763.51.95.44 1.831.203 2.78.983.442.407 1.018.78 1.018 1.39 0 .102 0 .204-.034.34-.746 2.237-3.154 6.781-3.764 13.868 2.069-2.815 11.767-17.09 12.241-17.836.204-.373.645-.509 1.187-.509 1.153 0 3.357 1.018 3.357 2.408 0 .44-.237.915-.814 1.458M79.583 39.843c-1.73 0-5.053 3.934-5.935 5.222 2.34.068 6.104-4.137 6.104-5.052 0-.102-.068-.17-.17-.17zm3.187 7.121c-1.356 2.408-5.765 5.426-8.104 5.426-1.153 0-2.713-.679-3.832-1.933-.746-.848-1.831-1.492-1.831-3.832 0-3.221 7.257-11.054 10.308-11.122.984 0 1.221.237 2.204 1.695.407.645 1.153 1.459 1.153 2.578 0 4.306-6.51 7.799-10.274 7.799h-.102c-.17.474-.271.915-.271 1.288 0 .915.542 1.526 1.899 1.526 3.933 0 6.95-3.967 8.002-4.611.034-.034.102-.034.136-.034.339 0 .78.407.78.881 0 .102-.034.204-.068.34zM101.792 44.93c-1.22 2.102-5.357 7.019-7.968 7.053-2.408.034-2.95-2.137-2.95-3.934v-.237c-.916 1.017-3.019 3.696-4.477 3.696-1.797.034-3.12-2.204-3.12-4.17 0-.374.035-.713.137-1.052.61-2.204 4.713-7.087 6.68-9.495.339-.44.712-.61 1.084-.61.814 0 2.781 1.12 2.781 1.967 0 .271-.102.543-.407.814-3.73 3.526-6.442 7.46-7.053 9.325-.102.237-.135.475-.135.644 0 .271.101.407.407.407.203 0 .508-.102.813-.407 3.018-2.916 9.529-11.63 10.105-12.614.102-.204.34-.305.577-.305.983 0 2.645 1.22 2.645 2.271 0 .238-.102.475-.34.712-1.22 1.188-6.646 8.105-6.646 10.14 0 .339.17.542.509.542 1.628.034 5.832-4.68 6.409-5.357.203-.238.44-.34.644-.34.238 0 .44.17.44.475 0 .136-.033.271-.135.475"/>
        <path fill="#FFF" d="M115.998 37.741h-.101c-.678-.17-1.526-.237-2.408-.237-.949 0-2 .068-3.017.17-3.052 4.068-6.545 9.324-6.545 11.528 0 .61.305 1.018.95 1.018 1.56 0 4.984-3.256 6.239-4.578.271-.271.44-.407.576-.407.17 0 .237.17.237.44 0 .577-.338 1.527-.745 1.967-1.29 1.425-4.137 4.24-6.172 4.24-.881 0-1.797-.408-2.814-1.391-.882-.848-1.187-1.662-1.187-2.476 0-.474.102-.949.237-1.424.746-2.204 2.611-5.391 4.612-8.41-.305 0-.543.035-.78.035-.068 0-.135-.034-.17-.034-.88 0-1.763-1.119-1.763-1.797 0-.272.17-.475.543-.475 1.153 0 2.305.068 3.459.068h.169c2.034-3.018 3.933-5.595 4.408-6.443.136-.237.373-.34.61-.34.713 0 3.052 1.493 3.052 2.273 0 .271-.17.576-.542.915-.441.374-1.594 1.73-3.018 3.56 1.933-.033 3.492-.1 3.764-.1.576-.035.813.779.813 1.254 0 .339-.135.644-.407.644"/>
        <path fill="#FFF" d="M123.152 39.267c-2.204 0-7.968 6.51-7.968 9.19 0 .677.407 1.118 1.322 1.118 1.662 0 7.29-7.29 7.29-9.596 0-.44-.203-.712-.644-.712zm2.68 1.492c-.136 3.73-5.528 10.986-8.885 10.986-1.289 0-2.373-.915-2.984-1.593-.44-.475-1.865-1.526-1.865-3.221 0-4.612 5.934-10.174 8.138-11.055.306-.136.577-.17.814-.17 1.12 0 1.933.916 2.306 1.255 1.017.916 2.475.984 2.475 3.527v.27zM143.633 45.54c-1.187 2.577-4.17 5.765-7.189 5.765-1.492.033-2.306-1.22-2.306-3.018 0-1.39 1.459-4.273 2.78-5.9-3.119 2.102-8.341 9.392-9.053 9.392-1.085 0-2.577-1.085-2.577-2.068 0-.102.034-.237.068-.305.509-1.39 6.24-11.428 6.646-12.072.34-.543.678-.712 1.018-.712.644 0 2.678 1.255 2.678 1.899 0 .136-.033.305-.135.474-.306.51-3.765 6.07-5.155 8.105 2.34-2.577 8.512-9.325 9.156-10.07.271-.273.508-.374.78-.374.678 0 2.712 1.56 2.712 2.272 0 .237-.135.509-.407.848-3.458 4.306-5.289 7.426-5.289 8.714 0 .44.305.848.746.814 1.22 0 4.272-3.357 4.984-4.34.102-.136.204-.17.34-.17.203 0 .27.102.27.407 0 .102 0 .204-.067.339"/>
    </g>
</svg>
